<?xml version="1.0" standalone="no"?>
<!DOCTYPE svg PUBLIC "-//W3C//DTD SVG 1.1//EN" "http://www.w3.org/Graphics/SVG/1.1/DTD/svg11.dtd" >
<svg xmlns="http://www.w3.org/2000/svg">
<metadata>Generated by IcoMoon</metadata>
<defs>
<font id="icomoon" horiz-adv-x="1024">
<font-face units-per-em="1024" ascent="960" descent="-64" />
<missing-glyph horiz-adv-x="1024" />
<glyph unicode="&#x20;" horiz-adv-x="512" d="" />
<glyph unicode="&#xe800;" glyph-name="logout" horiz-adv-x="950" d="M365.568 127.561q0-2.048 1.024-11.264t0-14.336-2.048-14.336-5.12-11.264-12.288-3.072h-182.272q-68.608 0-116.736 48.128t-48.128 116.736v401.408q0 68.608 48.128 116.736t116.736 48.128h182.272q8.192 0 13.312-5.12t5.12-13.312q0-2.048 1.024-11.264t0-15.36-2.048-13.312-5.12-11.264-12.288-3.072h-182.272q-37.888 0-64.512-27.648t-27.648-64.512v-401.408q0-37.888 27.648-64.512t64.512-27.648h178.176t6.144 0 7.168-2.048 4.096-3.072 4.096-5.12 1.024-8.192zM896 438.857q0-14.336-11.264-25.6l-310.272-311.296q-11.264-10.24-25.6-10.24t-25.6 10.24-11.264 25.6v164.864h-256q-14.336 0-25.6 11.264t-11.264 25.6v219.136q0 15.36 11.264 25.6t25.6 11.264h256v164.864q0 14.336 11.264 25.6t25.6 10.24 25.6-10.24l310.272-311.296q11.264-10.24 11.264-25.6z" />
<glyph unicode="&#xe801;" glyph-name="down" horiz-adv-x="594" d="M577.536 512.585l-239.616-229.376q-18.432-18.432-40.96-18.432t-40.96 18.432l-239.616 229.376q-16.384 16.384-16.384 41.984t16.384 41.984q38.912 38.912 79.872 0l200.704-192.512 200.704 192.512q40.96 38.912 79.872 0 16.384-16.384 16.384-41.984t-16.384-41.984z" />
<glyph unicode="&#xe802;" glyph-name="left" horiz-adv-x="349" d="M247.808 721.481q14.336 16.384 39.936 16.384t41.984-16.384q38.912-36.864 0-81.92l-190.464-200.704 190.464-198.656q38.912-45.056 0-81.92-16.384-16.384-40.96-16.384t-40.96 16.384l-231.424 241.664q-16.384 16.384-16.384 38.912 0 24.576 16.384 40.96 210.944 219.136 231.424 241.664z" />
<glyph unicode="&#xe803;" glyph-name="right" horiz-adv-x="348" d="M100.352 721.481l231.424-241.664q16.384-16.384 16.384-40.96 0-22.528-16.384-38.912l-231.424-241.664q-16.384-16.384-40.96-16.384t-40.96 16.384q-36.864 36.864 0 81.92l190.464 198.656-190.464 200.704q-36.864 45.056 0 81.92 16.384 16.384 41.984 16.384t39.936-16.384z" />
<glyph unicode="&#xe804;" glyph-name="up" horiz-adv-x="594" d="M577.536 367.177q16.384-16.384 16.384-41.984t-16.384-41.984q-38.912-38.912-79.872 0l-200.704 192.512-200.704-192.512q-40.96-38.912-79.872 0-16.384 16.384-16.384 41.984t16.384 41.984l239.616 229.376q16.384 16.384 40.96 16.384t40.96-16.384z" />
<glyph unicode="&#xe805;" glyph-name="views" d="M0 438.857q6.144 50.176 65.536 112.64 80.896 81.92 180.224 132.096 132.096 61.44 266.24 61.44 140.288-2.048 266.24-61.44 105.472-54.272 180.224-132.096 65.536-74.752 65.536-112.64-6.144-50.176-65.536-111.616-80.896-81.92-180.224-132.096-132.096-62.464-266.24-62.464-140.288 2.048-266.24 62.464-105.472 54.272-180.224 132.096-65.536 73.728-65.536 111.616zM270.336 438.857q0-96.256 70.656-162.816t171.008-66.56 171.008 66.56 70.656 162.816-70.656 162.816-171.008 67.584-171.008-67.584-70.656-162.816zM358.4 439.881q0 61.44 45.056 104.448t108.544 43.008 108.544-43.008 45.056-104.448-45.056-104.448-108.544-44.032-108.544 44.032-45.056 104.448z" />
<glyph unicode="&#xe806;" glyph-name="menu-down" d="M961.536 489.033l-423.936-422.912q-10.24-11.264-25.6-11.264t-25.6 11.264l-423.936 422.912q-11.264 11.264-11.264 26.624t11.264 25.6l94.208 94.208q11.264 11.264 26.624 11.264t25.6-11.264l303.104-303.104 303.104 303.104q11.264 11.264 25.6 11.264t26.624-11.264l94.208-94.208q11.264-11.264 11.264-25.6t-11.264-26.624z" />
<glyph unicode="&#xe807;" glyph-name="left-arrow" horiz-adv-x="731" d="M668.672 778.825l-303.104-303.104 303.104-304.128q11.264-10.24 11.264-25.6t-11.264-25.6l-94.208-95.232q-11.264-10.24-25.6-10.24t-25.6 10.24l-423.936 424.96q-11.264 10.24-11.264 25.6t11.264 25.6l423.936 423.936q10.24 10.24 25.6 10.24t25.6-10.24l94.208-95.232q11.264-10.24 11.264-25.6t-11.264-25.6z" />
<glyph unicode="&#xe808;" glyph-name="right-arrow" horiz-adv-x="731" d="M632.832 450.121l-423.936-424.96q-11.264-10.24-25.6-10.24t-26.624 10.24l-94.208 95.232q-11.264 11.264-11.264 25.6t11.264 25.6l303.104 304.128-303.104 303.104q-11.264 11.264-11.264 25.6t11.264 25.6l94.208 95.232q11.264 10.24 26.624 10.24t25.6-10.24l423.936-423.936q10.24-11.264 10.24-25.6t-10.24-25.6z" />
<glyph unicode="&#xe809;" glyph-name="menu-up" d="M961.536 190.025l-94.208-94.208q-11.264-10.24-26.624-10.24t-25.6 10.24l-303.104 304.128-303.104-304.128q-11.264-10.24-25.6-10.24t-26.624 10.24l-94.208 94.208q-11.264 11.264-11.264 26.624t11.264 25.6l423.936 423.936q11.264 10.24 25.6 10.24t25.6-10.24l423.936-423.936q11.264-11.264 11.264-25.6t-11.264-26.624z" />
<glyph unicode="&#xe80a;" glyph-name="search" horiz-adv-x="913" d="M584.151 550.718c-0.556-131.95-107.649-238.7-239.674-238.7-132.369 0-239.679 107.307-239.679 239.679s107.305 239.676 239.674 239.679c132.458-0.406 239.679-107.88 239.679-240.392 0-0.094 0-0.184 0-0.276zM912.975 44.972c-0.025 16.824-6.76 32.073-17.671 43.215l-268.665 251.721c36.745 60.249 59.516 132.608 62.148 210.079-0.536 190.515-154.516 344.15-344.377 344.15-190.207 0-344.398-154.191-344.398-344.398s154.191-344.398 344.396-344.398c78.156 2.732 150.426 25.641 212.451 63.641l251.85-267.152c10.896-11.251 26.136-18.237 43.007-18.246 33.782 0.294 61.073 27.654 61.257 61.433z" />
<glyph unicode="&#xe80b;" glyph-name="user" horiz-adv-x="1000" d="M0-41.399q0 9.216 1.024 23.552t11.264 45.056 26.624 49.152q17.408 17.408 66.56 37.888t110.592 43.008 92.16 36.864q36.864 18.432 56.32 55.296t20.48 74.752q0 27.648-31.744 63.488-18.432 21.504-31.744 60.416-45.056 18.432-45.056 73.728 0 41.984 15.36 60.416-4.096 27.648-9.216 81.92-1.024 8.192-2.048 21.504t2.048 45.056 15.36 54.272q19.456 33.792 48.128 46.080t48.128 5.12q1.024 0 1.024 0 1.024 5.12 4.096 13.312t14.336 22.528 25.6 20.48q8.192 4.096 25.6 6.144t44.032 1.024 53.248-8.192 55.296-21.504 50.176-38.912 35.84-60.416 15.36-86.016q0-10.24 0-20.48-4.096-46.080-9.216-81.92 14.336-18.432 14.336-60.416 0-55.296-45.056-73.728-13.312-38.912-31.744-60.416-31.744-35.84-31.744-63.488 0-38.912 20.48-74.752t56.32-55.296q29.696-15.36 92.16-36.864t111.616-43.008 65.536-37.888q18.432-17.408 27.648-46.080t10.24-51.2l1.024-20.48h-1000.448z" />
<glyph unicode="&#xe80c;" glyph-name="menu-left" d="M819.2 950.857c14.336 0 29.696-14.336 44.032-29.696 28.672-28.672 14.336-72.704 0-87.040l-467.968-395.264 453.632-395.264c28.672-28.672 28.672-58.368 0-87.040-15.36-29.696-44.032-44.032-73.728-15.36l-512 439.296c-28.672 14.336-28.672 28.672-28.672 58.368 0 14.336 14.336 29.696 28.672 44.032l512 453.632c14.336 14.336 29.696 14.336 44.032 14.336z" />
<glyph unicode="&#xe80d;" glyph-name="menu-right" d="M204.8-73.143c-14.336 0-29.696 14.336-44.032 29.696-28.672 14.336-14.336 58.368 14.336 87.040l453.632 409.6-453.632 380.928c-28.672 28.672-43.008 72.704-14.336 87.040 29.696 29.696 58.368 29.696 88.064 0l512-438.272c14.336-14.336 28.672-29.696 28.672-44.032s-14.336-29.696-28.672-44.032l-512-453.632c-14.336-14.336-29.696-14.336-44.032-14.336z" />
<glyph unicode="&#xe80f;" glyph-name="star1" horiz-adv-x="950" d="M951.296 581.193q0-12.288-15.36-27.648l-207.872-201.728 49.152-285.696q1.024-4.096 1.024-12.288 0-11.264-6.144-19.456t-17.408-9.216q-10.24 0-22.528 7.168l-257.024 135.168-256-135.168q-13.312-7.168-23.552-7.168-11.264 0-17.408 9.216t-6.144 19.456q0 4.096 1.024 12.288l49.152 285.696-207.872 201.728q-14.336 15.36-14.336 27.648 0 21.504 31.744 26.624l286.72 40.96 129.024 260.096q11.264 23.552 27.648 23.552t28.672-23.552l128-260.096 286.72-40.96q32.768-5.12 32.768-26.624z" />
<glyph unicode="&#xe810;" glyph-name="mail" d="M951.296 91.721v438.272q-18.432-20.48-39.936-37.888-152.576-116.736-243.712-192.512-28.672-24.576-47.104-38.912t-49.152-27.648-58.368-13.312h-2.048q-26.624 0-58.368 13.312t-49.152 27.648-47.104 38.912q-90.112 75.776-243.712 192.512-21.504 17.408-39.936 37.888v-438.272q0-8.192 6.144-13.312t12.288-5.12h841.728q7.168 0 12.288 5.12t6.144 13.312zM951.296 691.785v14.336t-1.024 7.168-1.024 7.168-3.072 5.12-5.12 4.096-8.192 2.048h-841.728q-7.168 0-12.288-6.144t-6.144-12.288q0-96.256 83.968-162.816 110.592-87.040 229.376-181.248 4.096-2.048 20.48-16.384t25.6-21.504 25.6-18.432 28.672-15.36 24.576-5.12h2.048q11.264 0 24.576 5.12t28.672 15.36 25.6 18.432 25.6 21.504 20.48 16.384q118.784 94.208 229.376 181.248 30.72 24.576 57.344 66.56t26.624 74.752zM1024 713.289v-621.568q0-37.888-26.624-64.512t-64.512-27.648h-841.728q-36.864 0-64.512 27.648t-26.624 64.512v621.568q0 37.888 26.624 64.512t64.512 26.624h841.728q37.888 0 64.512-26.624t26.624-64.512z" />
<glyph unicode="&#xe811;" glyph-name="behance" d="M413.696 475.721q57.344 0 87.040-40.96t31.744-81.92v-40.96q0-57.344-20.48-98.304t-51.2-59.392-60.416-27.648-50.176-11.264h-350.208v661.504h329.728q79.872 0 130.048-45.056t50.176-131.072q0-51.2-23.552-82.944t-48.128-37.888zM145.408 660.041v-147.456h174.080q26.624 0 40.96 15.36t14.336 62.464q0 30.72-11.264 48.128t-23.552 19.456l-10.24 2.048h-184.32zM321.536 234.057q75.776 0 75.776 86.016 0 40.96-16.384 63.488t-32.768 24.576l-18.432 2.048h-184.32v-176.128h176.128zM800.768 608.841q71.68 0 120.832-29.696t68.608-71.68 27.648-83.968 6.144-70.656l-2.048-30.72h-327.68q0-55.296 27.648-83.968t56.32-28.672l26.624-2.048q47.104 0 72.704 17.408t27.648 33.792l2.048 18.432h110.592q0-83.968-54.272-126.976t-107.52-45.056l-55.296-2.048q-73.728 0-124.928 25.6t-73.728 63.488-33.792 74.752-11.264 61.44v26.624q0 10.24 1.024 27.648t14.336 61.44 36.864 76.8 73.728 60.416 117.76 27.648zM901.12 410.185q0 4.096-1.024 11.264t-6.144 24.576-13.312 30.72-28.672 24.576-47.104 11.264q-43.008 0-71.68-25.6t-34.816-52.224l-6.144-24.576h208.896zM927.744 737.865v-79.872h-262.144v79.872h262.144z" />
<glyph unicode="&#xe812;" glyph-name="blogger" horiz-adv-x="1015" d="M563.2 950.857l-307.2-1.024c-131.072-18.432-242.688-99.328-251.904-236.544-3.072-13.312-2.048-25.6-2.048-37.888-2.048-60.416-1.024-124.928-1.024-186.368 1.024-98.304-2.048-177.152 0-249.856 1.024-214.016 126.976-313.344 356.352-309.248 56.32 1.024 121.856 1.024 196.608-1.024 73.728 0 131.072-5.12 181.248 2.048 226.304 31.744 270.336 183.296 279.552 306.176v140.288c-6.144 143.36-110.592 182.272-198.656 185.344 9.216 35.84 12.288 83.968 3.072 149.504-10.24 126.976-100.352 226.304-256 238.592zM306.176 759.369h250.88c138.24-18.432 132.096-167.936 0-189.44h-250.88c-138.24 18.432-132.096 167.936 0 189.44zM248.832 345.673l460.8-2.048c139.264-17.408 139.264-187.392 5.12-207.872l-460.8 2.048c-142.336 17.408-140.288 186.368-5.12 207.872z" />
<glyph unicode="&#xe813;" glyph-name="delicious" horiz-adv-x="1033" d="M0-73.143v513.024h513.024v-513.024h-513.024zM521.216 437.833v513.024h512v-513.024h-512z" />
<glyph unicode="&#xe814;" glyph-name="deviantart" horiz-adv-x="1017" d="M368.64 650.825l5.12-348.16h-210.944c23.552 100.352 70.656 181.248 207.872 201.728l-2.048 45.056c-300.032-38.912-364.544-203.776-368.64-322.56l484.352 1.024v289.792c146.432 4.096 327.68-2.048 377.856-212.992l-215.040 2.048v147.456c-38.912 11.264-71.68 11.264-108.544 9.216l-2.048-235.52h480.256c5.12 235.52-203.776 342.016-532.48 336.896v86.016h-115.712z" />
<glyph unicode="&#xe815;" glyph-name="digg" horiz-adv-x="1149" d="M0 236.105v380.928q0 13.312 13.312 13.312h180.224v132.096q0 14.336 13.312 14.336h100.352v-526.336q0-14.336-12.288-14.336h-294.912zM111.616 321.097h68.608q13.312 0 13.312 14.336v210.944h-68.608q-13.312 0-13.312-14.336v-210.944zM342.016 236.105v380.928q0 13.312 13.312 13.312h100.352v-379.904q0-14.336-12.288-14.336h-101.376zM342.016 691.785v70.656q0 14.336 12.288 14.336h101.376v-70.656q0-14.336-12.288-14.336h-101.376zM494.592 236.105v380.928q0 13.312 13.312 13.312h294.912v-516.096q0-13.312-13.312-13.312h-294.912l1.024 70.656q0 14.336 12.288 14.336h180.224v50.176h-193.536zM607.232 321.097h68.608q12.288 0 12.288 14.336v210.944h-68.608q-12.288 0-12.288-14.336v-210.944zM841.728 171.593q0 14.336 13.312 14.336h180.224v50.176h-193.536v380.928q0 13.312 13.312 13.312h293.888v-516.096q0-13.312-12.288-13.312h-294.912v70.656zM953.344 321.097h68.608q13.312 0 13.312 14.336v210.944h-68.608q-13.312 0-13.312-14.336v-210.944z" />
<glyph unicode="&#xe816;" glyph-name="dribbble" d="M0 438.857q0 139.264 68.608 257.024t186.368 186.368 257.024 68.608 257.024-68.608 186.368-186.368 68.608-257.024-68.608-257.024-186.368-186.368-257.024-68.608-257.024 68.608-186.368 186.368-68.608 257.024zM84.992 438.857q0-159.744 107.52-281.6 49.152 96.256 155.648 183.296t207.872 109.568q-15.36 35.84-29.696 64.512-176.128-56.32-380.928-56.32-39.936 0-59.392 1.024 0-4.096 0-10.24t-1.024-10.24zM98.304 544.329q22.528-2.048 66.56-2.048 171.008 0 324.608 46.080-77.824 138.24-171.008 230.4-80.896-40.96-138.24-113.664t-81.92-160.768zM250.88 101.961q115.712-90.112 261.12-90.112 75.776 0 150.528 28.672-20.48 175.104-79.872 338.944-94.208-20.48-189.44-103.424t-142.336-174.080zM407.552 851.529q90.112-93.184 166.912-232.448 139.264 58.368 209.92 148.48-118.784 98.304-272.384 98.304-52.224 0-104.448-14.336zM611.328 546.377q15.36-32.768 34.816-82.944 75.776 7.168 164.864 7.168 63.488 0 125.952-3.072-8.192 139.264-100.352 247.808-66.56-99.328-225.28-168.96zM671.744 391.753q52.224-151.552 70.656-311.296 80.896 52.224 132.096 134.144t61.44 177.152q-74.752 5.12-136.192 5.12-56.32 0-128-5.12z" />
<glyph unicode="&#xe817;" glyph-name="evernote" horiz-adv-x="857" d="M0 634.441q0 40.96 15.36 59.392 9.216 14.336 26.624 21.504 18.432 9.216 48.128 9.216h96.256q15.36 0 26.624 11.264t11.264 26.624q0 21.504-1.024 45.056v60.416q0 25.6 12.288 45.056 15.36 21.504 51.2 31.744 11.264 6.144 54.272 6.144h19.456q60.416-2.048 100.352-17.408 38.912-16.384 46.080-63.488 26.624 1.024 49.152 1.024 54.272 0 91.136-5.12 99.328-12.288 132.096-24.576 43.008-13.312 54.272-68.608 10.24-56.32 18.432-215.040 5.12-91.136 5.12-150.528 0-45.056-3.072-72.704-16.384-176.128-44.032-260.096-14.336-43.008-28.672-70.656t-27.648-43.008-37.888-23.552-43.008-9.216-60.416-1.024q-110.592 0-148.48 25.6t-38.912 109.568q0 46.080 10.24 73.728t33.792 37.888 47.104 13.312q15.36 1.024 40.96 1.024h28.672q4.096 0 6.144-1.024t0-5.12-2.048-8.192-3.072-11.264-2.048-13.312q0-9.216 2.048-18.432t1.024-12.288-7.168-3.072h-20.48t-10.24 0-10.24-2.048-8.192-2.048-8.192-4.096-6.144-6.144-4.096-9.216-1.024-12.288q0-14.336 4.096-23.552t8.192-14.336 18.432-7.168 22.528-2.048h32.768q58.368 0 74.752 13.312t16.384 65.536q0 77.824-18.432 105.472t-58.368 31.744q-90.112 9.216-121.856 20.48-54.272 20.48-54.272 121.856 0 2.048-2.048 2.048t-3.072-2.048q0-68.608-18.432-122.88l-8.192-24.576q-11.264-25.6-37.888-26.624h-6.144q-24.576 0-55.296 8.192-130.048 16.384-202.752 48.128-24.576 11.264-37.888 40.96-17.408 35.84-35.84 132.096t-24.576 136.192q-4.096 33.792-4.096 52.224zM6.144 756.297v2.048l187.392 184.32q0 1.024 1.024 1.024l-3.072-6.144q-11.264-20.48-11.264-49.152 0-22.528 1.024-105.472 0-10.24-10.24-10.24h-95.232q-34.816 0-60.416-11.264-5.12-3.072-9.216-5.12zM587.776 459.337q21.504 3.072 47.104 3.072 46.080-1.024 82.944-18.432 0 87.040-62.464 89.088h-3.072q-30.72 0-45.056-20.48-15.36-21.504-19.456-53.248z" />
<glyph unicode="&#xe818;" glyph-name="facebook" horiz-adv-x="512" d="M512 739.913h-145.408q-14.336 0-25.6-15.36t-11.264-37.888v-104.448h182.272v-151.552h-182.272v-452.608h-174.080v452.608h-155.648v151.552h155.648v88.064q0 96.256 60.416 162.816t150.528 66.56h145.408v-159.744z" />
<glyph unicode="&#xe819;" glyph-name="flickr" horiz-adv-x="922" d="M200.704 234.057q-81.92 0-141.312 60.416t-59.392 144.384q0 86.016 58.368 145.408t142.336 59.392 142.336-59.392 58.368-145.408q0-83.968-59.392-144.384t-141.312-60.416zM720.896 234.057q-81.92 0-141.312 60.416t-59.392 144.384q0 86.016 58.368 145.408t142.336 59.392 142.336-59.392 58.368-145.408q0-83.968-59.392-144.384t-141.312-60.416z" />
<glyph unicode="&#xe81a;" glyph-name="forrst" horiz-adv-x="854" d="M0-73.143l427.008 1024 427.008-1024h-377.856v138.24l174.080 87.040-13.312 56.32-160.768-80.896v68.608l100.352 53.248-14.336 58.368-86.016-46.080v89.088h-94.208v-160.768l-88.064 60.416-16.384-65.536 104.448-71.68v-186.368h-381.952z" />
<glyph unicode="&#xe81b;" glyph-name="googleplus" horiz-adv-x="1318" d="M1157.465 409.977h144.829v101.001h-144.829v141.982h-103.034v-141.982h-144.829v-101.001h144.829v-141.982h103.034v141.982zM414.749 32.241c253.075 0 396.931 182.077 396.931 406.606 0 27.738-2.846 54.733-8.22 80.829h-388.717v-162.806h221.767c-27.244-101.814-115.48-158.9-221.767-158.9-135.723 0-243.393 107.826-243.393 240.878s107.666 240.878 243.393 240.878c62.212 0 113.606-18.952 156.867-56.272l119.705 117.353c-74.004 67.251-167.686 104.66-276.572 104.66-229.086 0-414.738-182.077-414.738-406.606s185.661-406.606 414.738-406.606z" />
<glyph unicode="&#xe81c;" glyph-name="html5" horiz-adv-x="804" d="M646.144 609.865l9.216 100.352h-505.856l26.624-305.152h350.208l-12.288-131.072-112.64-29.696-112.64 29.696-7.168 79.872h-100.352l13.312-158.72 206.848-56.32h2.048l204.8 56.32 28.672 311.296h-367.616l-9.216 103.424h386.048zM0 878.153h804.864l-73.728-822.272-329.728-92.16-328.704 92.16z" />
<glyph unicode="&#xe81d;" glyph-name="instagram" horiz-adv-x="878" d="M585.143 438.857c0 80.571-65.714 146.286-146.286 146.286s-146.286-65.714-146.286-146.286 65.714-146.286 146.286-146.286 146.286 65.714 146.286 146.286zM664 438.857c0-124.571-100.571-225.143-225.143-225.143s-225.143 100.571-225.143 225.143 100.571 225.143 225.143 225.143 225.143-100.571 225.143-225.143zM725.714 673.143c0-29.143-23.429-52.571-52.571-52.571s-52.571 23.429-52.571 52.571 23.429 52.571 52.571 52.571 52.571-23.429 52.571-52.571zM438.857 798.857c-64 0-201.143 5.143-258.857-17.714-20-8-34.857-17.714-50.286-33.143s-25.143-30.286-33.143-50.286c-22.857-57.714-17.714-194.857-17.714-258.857s-5.143-201.143 17.714-258.857c8-20 17.714-34.857 33.143-50.286s30.286-25.143 50.286-33.143c57.714-22.857 194.857-17.714 258.857-17.714s201.143-5.143 258.857 17.714c20 8 34.857 17.714 50.286 33.143s25.143 30.286 33.143 50.286c22.857 57.714 17.714 194.857 17.714 258.857s5.143 201.143-17.714 258.857c-8 20-17.714 34.857-33.143 50.286s-30.286 25.143-50.286 33.143c-57.714 22.857-194.857 17.714-258.857 17.714zM877.714 438.857c0-60.571 0.571-120.571-2.857-181.143-3.429-70.286-19.429-132.571-70.857-184s-113.714-67.429-184-70.857c-60.571-3.429-120.571-2.857-181.143-2.857s-120.571-0.571-181.143 2.857c-70.286 3.429-132.571 19.429-184 70.857s-67.429 113.714-70.857 184c-3.429 60.571-2.857 120.571-2.857 181.143s-0.571 120.571 2.857 181.143c3.429 70.286 19.429 132.571 70.857 184s113.714 67.429 184 70.857c60.571 3.429 120.571 2.857 181.143 2.857s120.571 0.571 181.143-2.857c70.286-3.429 132.571-19.429 184-70.857s67.429-113.714 70.857-184c3.429-60.571 2.857-120.571 2.857-181.143z" />
<glyph unicode="&#xe81e;" glyph-name="lastfm" horiz-adv-x="1361" d="M0 438.857q0 167.936 118.784 286.72t286.72 118.784q126.976 0 225.28-64.512t149.504-185.344q15.36-36.864 132.096-307.2 21.504-49.152 38.912-74.752t50.176-46.080 80.896-22.528h7.168q68.608 0 113.664 36.864 47.104 38.912 48.128 98.304 0 27.648-8.192 46.080t-29.696 32.768-41.984 22.528-60.416 20.48q-128 41.984-184.32 92.16t-56.32 138.24q0 93.184 59.392 149.504t159.744 55.296q130.048 0 195.584-117.76l-86.016-44.032q-46.080 63.488-114.688 63.488-47.104 0-77.824-28.672t-31.744-74.752q0-13.312 2.048-24.576t9.216-21.504 12.288-16.384 17.408-14.336 20.48-12.288 25.6-10.24 27.648-10.24 31.744-10.24 33.792-10.24q110.592-36.864 158.72-86.016t47.104-143.36q0-102.4-77.824-169.984-76.8-66.56-190.464-66.56h-3.072q-102.4 0-164.864 48.128t-105.472 143.36l-14.336 33.792-130.048 294.912q-33.792 78.848-106.496 126.976t-162.816 48.128q-121.856 0-207.872-86.016t-87.040-208.896 87.040-207.872 207.872-87.040q83.968 0 153.6 44.032t107.52 114.688l52.224-120.832q-56.32-69.632-138.24-109.568t-175.104-38.912q-167.936 0-286.72 118.784t-118.784 286.72z" />
<glyph unicode="&#xe81f;" glyph-name="linkedin" horiz-adv-x="1061" d="M0 827.977q0 51.2 35.84 84.992t93.184 32.768q56.32 0 91.136-32.768 35.84-33.792 35.84-88.064 0-49.152-34.816-81.92-35.84-33.792-94.208-33.792h-1.024q-56.32 0-91.136 33.792t-34.816 84.992zM13.312-68.023v684.032h227.328v-684.032h-227.328zM366.592-68.023h227.328v381.952q0 35.84 8.192 55.296 14.336 34.816 44.032 59.392t72.704 23.552q114.688 0 114.688-154.624v-365.568h227.328v392.192q0 151.552-71.68 230.4t-189.44 77.824q-132.096 0-205.824-113.664v-2.048h-1.024l1.024 2.048v97.28h-227.328q2.048-32.768 2.048-203.776t-2.048-480.256z" />
<glyph unicode="&#xe820;" glyph-name="mail-1" horiz-adv-x="907" d="M593.92 393.801l264.192-273.408h-807.936l265.216 270.336 138.24-130.048zM64.512 757.321h778.24l-389.12-370.688zM644.096 440.905l263.168 247.808v-520.192zM0 168.521v520.192l265.216-248.832z" />
<glyph unicode="&#xe821;" glyph-name="myspace" horiz-adv-x="1112" d="M0 259.657v358.4h143.36v-211.968h824.32v211.968h144.384v-358.4h-1112.064z" />
<glyph unicode="&#xe822;" glyph-name="path" horiz-adv-x="952" d="M0 556.617q4.096 176.128 134.144 284.672 138.24 107.52 342.016 109.568 214.016-4.096 344.064-107.52 63.488-54.272 97.28-130.048t34.816-156.672q-4.096-167.936-128-269.312-130.048-102.4-337.92-104.448v-61.44q-2.048-58.368-34.816-106.496t-81.92-71.68q-33.792-16.384-73.728-16.384-48.128 0-96.256 24.576v177.152q41.984-29.696 78.848-19.456 33.792 14.336 33.792 50.176v491.52h174.080v-306.176q59.392 0 113.664 12.288 81.92 20.48 128 60.416 60.416 57.344 60.416 139.264 0 118.784-98.304 180.224-90.112 52.224-214.016 52.224-130.048-4.096-216.064-56.32-46.080-29.696-70.656-76.8t-25.6-99.328q8.192-107.52 48.128-145.408l-109.568-117.76q-48.128 47.104-76.8 123.904-23.552 79.872-25.6 139.264z" />
<glyph unicode="&#xe823;" glyph-name="paypal" horiz-adv-x="880" d="M789.504 705.097l8.192-4.096q38.912-22.528 61.44-63.488 20.48-38.912 20.48-98.304 0-133.12-112.64-215.040-108.544-81.92-313.344-81.92h-30.72q-16.384 0-32.768-12.288t-20.48-28.672l-36.864-159.744q-12.288-43.008-53.248-43.008h-108.544q-18.432 0-28.672 13.312t-6.144 29.696l6.144 24.576h69.632q16.384 0 32.768 13.312t20.48 29.696l36.864 159.744q10.24 40.96 53.248 40.96h30.72q200.704 0 313.344 81.92 112.64 83.968 112.64 215.040 0 57.344-22.528 98.304zM195.584 176.713q-2.048-16.384-18.432-29.696t-32.768-13.312h-110.592q-18.432 0-27.648 13.312t-5.12 29.696l153.6 661.504q10.24 40.96 53.248 40.96h229.376q79.872 0 129.024-8.192 57.344-12.288 96.256-34.816 36.864-24.576 59.392-63.488 20.48-38.912 20.48-98.304 0-133.12-112.64-215.040-108.544-81.92-311.296-81.92h-32.768q-16.384 0-32.768-12.288t-18.432-28.672zM285.696 559.689q-4.096-16.384 6.144-28.672t26.624-12.288h28.672q88.064 0 137.216 36.864 49.152 34.816 49.152 100.352 0 45.056-30.72 65.536-32.768 20.48-96.256 20.48h-34.816q-43.008 0-53.248-40.96z" />
<glyph unicode="&#xe824;" glyph-name="picasa" horiz-adv-x="942" d="M256 858.697q10.24-12.288 161.792-147.456l-405.504-370.688q-12.288 49.152-12.288 98.304 0 133.12 68.608 245.76t187.392 174.080zM665.6 868.937v-284.672l-335.872 303.104q65.536 22.528 141.312 22.528 100.352 0 194.56-40.96zM737.28 827.977q96.256-65.536 150.528-168.96t54.272-220.16q0-81.92-26.624-155.648h-178.176v544.768zM34.816 264.777q12.288 12.288 67.584 61.44l104.448 94.208v-370.688q-118.784 81.92-172.032 215.040zM278.528 8.777v202.752h604.16q-57.344-102.4-154.624-166.912t-214.016-76.8h-86.016q-86.016 10.24-149.504 40.96z" />
<glyph unicode="&#xe825;" glyph-name="pinterest" horiz-adv-x="797" d="M327.68 275.017q-26.624-133.12-59.392-216.064t-98.304-132.096q-6.144 75.776-7.168 122.88t11.264 112.64 22.528 106.496 26.624 101.376 24.576 101.376q-24.576 53.248-19.456 118.784t49.152 108.544 101.376 20.48q40.96-16.384 45.056-60.416t-13.312-97.28-32.768-105.472-4.096-92.16 64.512-50.176q69.632-14.336 123.904 38.912t75.776 134.144 11.264 166.912-55.296 131.072q-63.488 65.536-154.624 71.68t-166.912-33.792-122.88-119.808-32.768-174.080q4.096-22.528 22.528-53.248t21.504-48.128-17.408-68.608q-149.504 34.816-143.36 235.52 4.096 141.312 107.52 239.616t238.592 114.688q167.936 18.432 296.96-58.368t147.456-224.256q26.624-180.224-67.584-324.608t-258.048-132.096q-22.528 2.048-43.008 9.216t-30.72 13.312-31.744 21.504-31.744 21.504z" />
<glyph unicode="&#xe826;" glyph-name="posterous" horiz-adv-x="680" d="M0 935.497h102.4l8.192-123.904h10.24l5.12 3.072q80.896 136.192 251.904 136.192 133.12 0 218.112-100.352t83.968-260.096q0-95.232-27.648-169.984t-73.728-120.832-103.424-68.608-119.808-23.552q-70.656 0-128 29.696t-89.088 80.896l-2.048 3.072h-11.264l-3.072-7.168v-387.072h-115.712v779.264q0 90.112-6.144 229.376zM121.856 512.585q0-31.744 6.144-56.32 19.456-71.68 75.776-115.712t129.024-44.032q103.424 0 165.888 78.848t62.464 208.896q0 121.856-62.464 198.656t-160.768 76.8q-73.728 0-131.072-46.080t-75.776-120.832q-9.216-33.792-9.216-54.272v-125.952z" />
<glyph unicode="&#xe827;" glyph-name="reddit" horiz-adv-x="1234" d="M0 441.929q0 63.488 51.2 108.544t114.688 45.056 107.52-36.864h5.12q137.216 83.968 343.040 83.968l5.12 4.096 71.68 273.408 247.808-36.864q0-1.024 2.048-1.024 1.024 0 0 1.024 2.048 1.024 12.288 16.384t14.336 18.432q34.816 32.768 83.968 32.768 50.176 0 84.992-32.768t33.792-83.968-33.792-86.016-84.992-35.84q-58.368 0-89.088 39.936t-30.72 98.304q-2.048-1.024-99.328 13.312t-112.64 17.408h-3.072q-2.048-2.048-16.384-54.272t-30.72-111.616-18.432-65.536v-3.072l5.12-4.096q73.728 0 151.552-20.48t133.12-59.392l3.072-2.048q1.024 1.024 2.048 1.024t2.048 1.024q25.6 18.432 36.864 25.6t29.696 13.312 44.032 6.144q69.632 0 118.784-49.152t49.152-119.808q0-48.128-26.624-88.064t-71.68-61.44q0-199.68-266.24-310.272-41.984-18.432-57.344-23.552-32.768-10.24-93.184-19.456t-95.232-9.216q-122.88 0-236.544 35.84-2.048 2.048-73.728 38.912-97.28 52.224-155.648 118.784t-59.392 159.744h-5.12q-33.792 17.408-60.416 51.2l-9.216 12.288q-15.36 27.648-19.456 47.104t-4.096 51.2zM34.816 429.641q0-67.584 58.368-114.688 5.12 60.416 49.152 118.784t103.424 103.424q-37.888 26.624-83.968 26.624-50.176 0-88.064-40.96t-38.912-93.184zM139.264 280.137q0-55.296 31.744-106.496t81.92-87.040 104.448-61.44 107.52-34.816q76.8-14.336 149.504-14.336 125.952 0 238.592 39.936t189.44 125.952h-3.072q30.72 38.912 44.032 70.656t13.312 73.728q0 55.296-26.624 105.472t-71.68 86.016-94.208 62.464-102.4 38.912q-87.040 23.552-185.344 23.552-75.776 0-154.624-18.432t-153.6-55.296-121.856-101.376-47.104-147.456zM329.728 354.889q0 37.888 23.552 61.44t60.416 22.528 63.488-22.528 25.6-61.44q0-36.864-25.6-61.44t-63.488-24.576-60.416 24.576-23.552 61.44zM366.592 186.953h45.056q25.6-46.080 81.92-69.632t113.664-24.576q59.392 0 112.64 24.576t86.016 69.632h41.984q-25.6-63.488-95.232-98.304t-145.408-34.816q-73.728 0-144.384 35.84t-96.256 97.28zM710.656 354.889q0 38.912 23.552 61.44t62.464 22.528q34.816 0 59.392-24.576t24.576-59.392-24.576-60.416-59.392-25.6q-37.888 0-61.44 24.576t-24.576 61.44zM971.776 834.121q0-35.84 25.6-61.44t61.44-25.6q36.864 0 60.416 25.6t23.552 61.44q0 34.816-24.576 59.392t-59.392 24.576-60.416-24.576-26.624-59.392zM986.112 546.377q56.32-36.864 97.28-94.208t57.344-122.88q60.416 44.032 60.416 98.304 0 59.392-35.84 102.4t-95.232 43.008q-46.080 0-83.968-26.624z" />
<glyph unicode="&#xe828;" glyph-name="rss" horiz-adv-x="804" d="M219.136 182.857q0-46.080-31.744-77.824t-77.824-31.744-77.824 31.744-31.744 77.824 31.744 77.824 77.824 31.744 77.824-31.744 31.744-77.824zM512 112.201q1.024-15.36-9.216-26.624-11.264-12.288-27.648-12.288h-76.8q-14.336 0-24.576 9.216t-11.264 23.552q-12.288 131.072-105.472 224.256t-224.256 105.472q-14.336 1.024-23.552 11.264t-9.216 24.576v76.8q0 16.384 12.288 26.624 9.216 10.24 24.576 10.24h3.072q91.136-7.168 174.080-46.080t148.48-103.424q64.512-64.512 103.424-148.48t46.080-175.104zM804.864 111.177q1.024-15.36-10.24-26.624-10.24-11.264-26.624-11.264h-81.92q-14.336 0-25.6 10.24t-11.264 23.552q-6.144 122.88-57.344 233.472t-132.096 192.512-192.512 132.096-232.448 58.368q-14.336 0-24.576 11.264t-10.24 24.576v81.92q0 15.36 11.264 26.624 10.24 10.24 25.6 10.24h1.024q150.528-8.192 286.72-68.608t243.712-167.936q106.496-106.496 167.936-243.712t68.608-286.72z" />
<glyph unicode="&#xe829;" glyph-name="share" horiz-adv-x="819" d="M665.6 285.257q63.488 0 108.544-44.032t45.056-109.568q0-63.488-45.056-108.544t-108.544-45.056-108.544 45.056-45.056 108.544q0 6.144 1.024 14.336t1.024 12.288l-266.24 159.744q-43.008-32.768-94.208-32.768-63.488 0-108.544 45.056t-45.056 108.544 45.056 108.544 108.544 45.056q55.296 0 94.208-30.72l266.24 159.744q0 4.096-1.024 12.288t-1.024 12.288q0 63.488 45.056 108.544t108.544 45.056 108.544-44.032 45.056-109.568q0-63.488-45.056-108.544t-108.544-45.056q-53.248 0-92.16 32.768l-268.288-159.744q2.048-8.192 2.048-26.624 0-16.384-2.048-24.576l268.288-159.744q36.864 30.72 92.16 30.72z" />
<glyph unicode="&#xe82a;" glyph-name="skype" horiz-adv-x="1010" d="M0 671.305q0 115.712 81.92 197.632t197.632 81.92q79.872 0 148.48-43.008 36.864 7.168 81.92 7.168 199.68 0 340.992-141.312t141.312-339.968q0-50.176-11.264-103.424 28.672-60.416 28.672-123.904 0-115.712-81.92-197.632t-197.632-81.92q-69.632 0-132.096 32.768-46.080-8.192-88.064-8.192-198.656 0-339.968 141.312t-141.312 340.992q0 48.128 9.216 96.256-37.888 66.56-37.888 141.312zM226.304 296.521q0-41.984 30.72-87.040 72.704-106.496 251.904-106.496 51.2 0 99.328 11.264t89.088 34.816 67.584 65.536 25.6 96.256q0 59.392-29.696 100.352t-75.776 59.392-97.28 33.792-98.304 23.552-74.752 26.624-30.72 45.056q0 33.792 37.888 50.176t75.776 16.384q40.96 0 67.584-12.288t38.912-30.72 21.504-35.84 25.6-30.72 39.936-13.312q27.648 0 49.152 19.456t20.48 47.104-15.36 55.296q-30.72 56.32-97.28 81.92t-141.312 25.6q-47.104 0-91.136-9.216t-84.992-29.696-65.536-57.344-25.6-89.088q0-67.584 40.96-108.544t99.328-58.368 117.76-29.696 99.328-33.792 40.96-60.416q0-29.696-23.552-50.176t-51.2-27.648-58.368-7.168q-38.912 0-65.536 11.264t-39.936 27.648-22.528 35.84-18.432 35.84-23.552 27.648-37.888 10.24q-28.672 0-49.152-17.408t-21.504-46.080z" />
<glyph unicode="&#xe82b;" glyph-name="soundcloud" horiz-adv-x="1073" d="M0 248.393q0-20.48 14.336-30.72t30.72-7.168 22.528 11.264 6.144 26.624v144.384q0 15.36-11.264 26.624t-25.6 10.24q-15.36 0-25.6-10.24t-11.264-26.624v-144.384zM114.688 185.929q0-14.336 10.24-21.504t26.624-7.168 26.624 7.168 10.24 21.504v337.92q0 15.36-10.24 25.6t-26.624 11.264q-15.36 0-25.6-11.264t-11.264-25.6v-337.92zM229.376 170.569q0-14.336 10.24-22.528t27.648-7.168q15.36 0 25.6 7.168t10.24 22.528v308.224q0 15.36-10.24 26.624t-25.6 10.24q-15.36 0-26.624-10.24t-11.264-26.624v-308.224zM344.064 168.521q0-27.648 36.864-27.648t37.888 27.648v499.712q0 41.984-25.6 48.128-16.384 4.096-32.768-10.24t-16.384-37.888v-499.712zM460.8 154.185v543.744q0 25.6 16.384 30.72 32.768 8.192 66.56 8.192 75.776 0 142.336-35.84t106.496-98.304 47.104-137.216q30.72 13.312 64.512 13.312 70.656 0 119.808-50.176t50.176-118.784q0-69.632-50.176-118.784t-118.784-50.176l-435.2 1.024q-4.096 1.024-6.144 5.12t-3.072 7.168z" />
<glyph unicode="&#xe82c;" glyph-name="spotify" d="M0 438.857q0 139.264 68.608 257.024t186.368 186.368 257.024 68.608 257.024-68.608 186.368-186.368 68.608-257.024q0-103.424-38.912-196.608t-109.568-163.84q-61.44 74.752-148.48 116.736t-187.392 41.984q-109.568 0-203.776-50.176t-154.624-138.24q-84.992 72.704-133.12 174.080t-48.128 216.064zM167.936 586.313q0-17.408 12.288-29.696t30.72-13.312q6.144 0 9.216 1.024 147.456 59.392 305.152 59.392t305.152-59.392q1.024 0 4.096 0t5.12-1.024q17.408 0 30.72 13.312t12.288 29.696q0 25.6-23.552 37.888-162.816 64.512-333.824 64.512-174.080 0-336.896-65.536-20.48-13.312-20.48-36.864zM215.040 433.737l6.144-16.384q8.192-13.312 23.552-13.312 3.072 0 9.216 2.048 130.048 56.32 271.36 56.32 142.336 0 273.408-57.344 4.096-2.048 7.168-2.048 15.36 0 23.552 13.312l5.12 17.408q0 13.312-10.24 21.504-141.312 63.488-299.008 63.488-156.672 0-300.032-63.488-10.24-10.24-10.24-21.504zM264.192 286.281q10.24-25.6 31.744-16.384 110.592 52.224 229.376 52.224 114.688 0 224.256-49.152 24.576-13.312 35.84 12.288 5.12 13.312 0 23.552t-14.336 15.36q-108.544 54.272-245.76 54.272-131.072 0-249.856-56.32-19.456-10.24-11.264-35.84zM326.656-38.327q37.888 49.152 94.208 77.824t118.784 28.672q116.736 0 197.632-88.064-106.496-53.248-225.28-53.248-96.256 0-185.344 34.816z" />
<glyph unicode="&#xe82d;" glyph-name="stackoverflow" horiz-adv-x="803" d="M0-73.143v427.008l77.824-1.024-3.072-343.040h513.024v342.016h80.896v-424.96h-668.672zM125.952 151.113h401.408v-84.992h-401.408v84.992zM126.976 217.673l8.192 87.040 402.432-38.912-8.192-87.040zM148.48 394.825l23.552 83.968 389.12-109.568-24.576-83.968zM221.184 600.649l45.056 74.752 346.112-208.896-46.080-74.752zM392.192 810.569l70.656 51.2 235.52-328.704-71.68-51.2zM650.24 936.521l86.016 14.336 66.56-398.336-86.016-14.336z" />
<glyph unicode="&#xe82e;" glyph-name="steam1" horiz-adv-x="1343" d="M0 561.737q0 56.32 39.936 96.256t95.232 39.936q48.128 0 86.016-29.696t47.104-76.8l514.048-206.848q32.768 19.456 69.632 19.456 2.048 0 7.168 0t7.168-1.024l112.64 162.816q1.024 74.752 54.272 128t128 52.224q75.776 0 129.024-53.248t53.248-129.024-53.248-129.024-129.024-53.248l-174.080-126.976q-5.12-52.224-44.032-87.040t-91.136-35.84q-49.152 0-86.016 30.72t-47.104 76.8l-514.048 205.824q-32.768-19.456-69.632-19.456-56.32 0-95.232 39.936t-39.936 96.256zM35.84 561.737q0-40.96 29.696-69.632t69.632-29.696q9.216 0 21.504 2.048l-41.984 16.384v1.024q-28.672 13.312-40.96 43.008-6.144 14.336-6.144 28.672 0 15.36 6.144 30.72 12.288 30.72 40.96 43.008 15.36 7.168 31.744 6.144 13.312 0 27.648-5.12v1.024l50.176-20.48q-29.696 53.248-89.088 53.248-40.96 0-69.632-28.672t-29.696-71.68zM762.88 220.745q29.696-53.248 89.088-53.248 40.96 0 70.656 29.696t29.696 70.656-28.672 70.656-71.68 28.672q-14.336 0-21.504-2.048l40.96-16.384q30.72-12.288 44.032-43.008 7.168-15.36 7.168-30.72 0-14.336-6.144-29.696-12.288-31.744-43.008-44.032-15.36-6.144-30.72-6.144-14.336 0-29.696 6.144-8.192 3.072-24.576 10.24t-25.6 9.216zM1039.36 563.785q0-50.176 35.84-86.016t86.016-35.84q51.2 0 87.040 35.84t35.84 86.016-35.84 86.016-87.040 35.84q-50.176 0-86.016-35.84t-35.84-86.016zM1064.96 564.809q0-40.96 28.672-69.632t68.608-28.672 68.608 28.672 28.672 69.632q0 39.936-28.672 68.608t-68.608 28.672q-40.96 0-68.608-28.672t-28.672-68.608z" />
<glyph unicode="&#xe82f;" glyph-name="mix" d="M204.8 690.59v-646.4c0-57.6-44.8-100.267-102.4-100.267s-102.4 44.8-102.4 100.267v906.667h1024v-569.6c0-55.467-46.933-100.267-102.4-100.267-57.6 0-104.533 44.8-104.533 100.267v51.2c0 57.6-44.8 100.267-102.4 100.267-48.512 0-90.496-34.261-100.267-80v-163.2c0-57.6-46.933-100.267-102.4-100.267-57.6 0-102.4 44.8-102.4 100.267v394.667c0 55.467-46.933 100.267-102.4 100.267-0.106 0-0.231 0.001-0.356 0.001-53.55 0-97.5-41.106-102.017-93.485l-0.027-0.382z" />
<glyph unicode="&#xe830;" glyph-name="tumblr" horiz-adv-x="631" d="M0 531.017v145.408q61.44 20.48 103.424 56.32 41.984 33.792 68.608 88.064 26.624 52.224 35.84 130.048h146.432v-259.072h242.688v-160.768h-242.688v-262.144q0-88.064 9.216-114.688 9.216-24.576 34.816-39.936 34.816-20.48 77.824-20.48 78.848 0 154.624 50.176v-160.768q-64.512-31.744-118.784-44.032-53.248-12.288-114.688-12.288-69.632 0-124.928 17.408-56.32 19.456-91.136 51.2-36.864 31.744-53.248 69.632-14.336 34.816-14.336 107.52v358.4h-113.664z" />
<glyph unicode="&#xe831;" glyph-name="twitter" horiz-adv-x="1260" d="M894.682 864h141.141l-308.352-352.427 362.752-479.573h-284.032l-222.464 290.859-254.549-290.859h-141.227l329.813 376.96-347.989 455.040h291.243l201.088-265.856zM845.146 116.48h78.208l-504.832 667.477h-83.925z" />
<glyph unicode="&#xe832;" glyph-name="vimeo" horiz-adv-x="1174" d="M0 672.329q56.32 66.56 112.64 118.784t98.304 79.872 73.728 44.032 49.152 21.504l17.408 4.096q12.288 2.048 24.576 2.048 19.456 0 35.84-6.144 26.624-10.24 44.032-34.816t29.696-56.32 21.504-73.728 15.36-79.872 14.336-80.896 14.336-72.704q32.768-128 53.248-181.248t41.984-54.272q24.576 0 68.608 57.344t95.232 154.624q26.624 49.152 26.624 93.184 0 13.312-2.048 23.552-9.216 53.248-52.224 66.56-11.264 4.096-24.576 4.096-35.84 0-84.992-26.624 22.528 133.12 137.216 214.016 87.040 61.44 178.176 61.44 12.288 0 24.576-1.024 104.448-8.192 142.336-92.16 18.432-38.912 18.432-90.112 0-29.696-6.144-62.464-18.432-104.448-70.656-212.992t-115.712-191.488-136.192-158.72-125.952-120.832-93.184-69.632q-43.008-24.576-79.872-24.576t-71.68 21.504-57.344 49.152-38.912 58.368q-18.432 38.912-99.328 306.176t-99.328 286.72q-1.024 2.048-4.096 4.096t-13.312 5.12-24.576 0-37.888-14.336-51.2-33.792z" />
<glyph unicode="&#xe833;" glyph-name="windows" horiz-adv-x="950" d="M390.144 376.393v-372.736l-390.144 54.272v318.464h390.144zM390.144 800.329v-375.808h-390.144v322.56zM951.296 376.393v-449.536l-519.168 71.68v377.856h519.168zM951.296 878.153v-453.632h-519.168v381.952z" />
<glyph unicode="&#xe834;" glyph-name="wordpress" horiz-adv-x="1019" d="M514.048 950.857c-200.704 0-389.12-118.784-476.16-307.2h243.712v-26.624c-74.752 9.216-68.608-30.72-57.344-71.68l159.744-400.384 117.76 275.456-54.272 129.024c-19.456 34.816-20.48 72.704-100.352 69.632l1.024 24.576 357.376-1.024v-27.648c-41.984-3.072-92.16 10.24-65.536-75.776l144.384-378.88 78.848 221.184c26.624 93.184 2.048 182.272-28.672 270.336-17.408 58.368-9.216 107.52 67.584 126.976-116.736 119.808-254.976 172.032-388.096 172.032zM1000.448 600.649l-232.448-604.16c64.512 55.296 130.048 75.776 209.92 229.376 53.248 126.976 48.128 244.736 22.528 374.784zM13.312 590.409c-22.528-178.176-20.48-230.4 35.84-375.808 72.704-139.264 129.024-168.96 209.92-223.232l-245.76 599.040zM523.264 364.105l-172.032-413.696c120.832-34.816 228.352-30.72 327.68 8.192l-155.648 405.504z" />
<glyph unicode="&#xe835;" glyph-name="yahoo" horiz-adv-x="1408" d="M0 736.841l6.144-19.456q4.096-6.144 8.192-10.24t5.12-5.12l2.048-2.048 19.456-10.24h113.664l293.888-352.256q11.264-12.288 11.264-25.6v-196.608q0-8.192-2.048-12.288t-6.144-5.12h-3.072q-114.688 0-145.408-3.072-10.24 0-10.24-9.216v-56.32h528.384v58.368q0 3.072-2.048 5.12t-5.12 2.048h-149.504q-9.216 0-9.216 15.36v206.848q-1.024 3.072 2.048 7.168t5.12 7.168l3.072 3.072q11.264 11.264 270.336 254.976h136.192q9.216 0 18.432 7.168l17.408 19.456q6.144 7.168 6.144 18.432v14.336q-1.024 3.072-3.072 5.12t-3.072 1.024h-448.512l-7.168-6.144q-1.024-6.144 2.048-12.288t5.12-10.24l2.048-4.096 23.552-23.552 18.432-7.168h117.76l-211.968-199.68-233.472 297.984h41.984q13.312-1.024 22.528 4.096l69.632 21.504q1.024 0 3.072 1.024t5.12 5.12 2.048 9.216v14.336q0 3.072-2.048 5.12t-4.096 2.048h-503.808q-8.192-1.024-10.24-7.168v-8.192zM1218.56 848.457l189.44-7.168-84.992-580.608-62.464 3.072zM1231.872 67.145l4.096 112.64 112.64-4.096-4.096-112.64z" />
<glyph unicode="&#xe836;" glyph-name="youtube" d="M731.136 438.857q0 21.504-16.384 30.72l-292.864 183.296q-17.408 11.264-36.864 1.024t-19.456-31.744v-366.592q0-21.504 19.456-31.744 9.216-4.096 17.408-4.096 11.264 0 19.456 5.12l292.864 183.296q16.384 9.216 16.384 30.72zM1024 438.857q0-55.296-1.024-86.016t-4.096-77.824-13.312-83.968q-9.216-41.984-38.912-70.656t-71.68-32.768q-125.952-14.336-382.976-14.336t-382.976 14.336q-40.96 4.096-71.68 32.768t-39.936 70.656q-7.168 36.864-12.288 83.968t-4.096 77.824-1.024 86.016 1.024 86.016 4.096 77.824 13.312 83.968q9.216 41.984 38.912 70.656t71.68 32.768q125.952 14.336 382.976 14.336t382.976-14.336q40.96-4.096 71.68-32.768t39.936-70.656q8.192-36.864 12.288-83.968t4.096-77.824 1.024-86.016z" />
<glyph unicode="&#xe837;" glyph-name="vk" horiz-adv-x="1249" d="M0 750.153q10.24 8.192 25.6 12.288 14.336 4.096 25.6 4.096h9.216q10.24 0 24.576-1.024 22.528-1.024 32.768-1.024 6.144 0 38.912 2.048 16.384 1.024 29.696 1.024t23.552-1.024q20.48-2.048 32.768-8.192 6.144-3.072 13.312-13.312t12.288-19.456 11.264-25.6 10.24-22.528q38.912-83.968 96.256-166.912 2.048-3.072 7.168-11.264t9.216-12.288 9.216-12.288 10.24-11.264 11.264-8.192 11.264-6.144 12.288 0q28.672 5.12 31.744 119.808 1.024 19.456 1.024 35.84 0 75.776-15.36 104.448-6.144 11.264-15.36 18.432t-25.6 12.288-23.552 10.24q14.336 28.672 51.2 37.888t98.304 9.216h54.272t26.624 0 27.648-3.072l22.528-6.144t20.48-9.216 12.288-14.336q9.216-18.432 11.264-43.008 0-7.168 1.024-14.336 0-20.48-3.072-53.248-4.096-43.008-4.096-53.248-3.072-23.552-3.072-47.104 0-18.432 2.048-38.912 4.096-45.056 30.72-62.464 9.216 1.024 17.408 4.096t15.36 11.264 11.264 12.288 13.312 16.384 10.24 14.336q48.128 63.488 96.256 166.912l9.216 23.552t12.288 26.624 12.288 20.48 15.36 13.312q16.384 7.168 38.912 7.168h9.216q20.48 0 47.104-2.048 32.768-2.048 48.128-2.048 9.216 0 28.672 1.024t32.768 2.048 30.72-1.024 25.6-6.144 14.336-13.312q3.072-6.144 3.072-13.312 0-29.696-35.84-89.088-17.408-29.696-34.816-53.248t-47.104-59.392-37.888-48.128q-2.048-2.048-14.336-18.432t-17.408-24.576-12.288-22.528-5.12-27.648q0-8.192 3.072-15.36t10.24-15.36 10.24-12.288 13.312-13.312 12.288-11.264q72.704-66.56 114.688-119.808 40.96-53.248 40.96-76.8 0-33.792-52.224-41.984-26.624-4.096-54.272-4.096-21.504 0-44.032 3.072-20.48 2.048-37.888 2.048-26.624 0-46.080-5.12h-6.144q-67.584 11.264-142.336 96.256-4.096 4.096-17.408 21.504t-22.528 25.6-23.552 17.408-27.648 6.144q-23.552-4.096-30.72-29.696t-9.216-60.416-10.24-50.176q-13.312-24.576-80.896-24.576-28.672 0-67.584 4.096-79.872 8.192-144.384 40.96t-103.424 69.632-82.944 94.208q-106.496 136.192-201.728 329.728-3.072 6.144-11.264 23.552t-12.288 25.6-9.216 24.576-8.192 28.672-3.072 26.624z" />
<glyph unicode="&#xe838;" glyph-name="grooveshark" d="M0 438.857q0 139.264 68.608 257.024t186.368 186.368 257.024 68.608 257.024-68.608 186.368-186.368 68.608-257.024-68.608-257.024-186.368-186.368-257.024-68.608-257.024 68.608-186.368 186.368-68.608 257.024zM132.096 438.857q0-66.56 36.864-78.848 5.12-2.048 17.408-4.096 43.008-1.024 87.040 40.96 41.984 36.864 59.392 92.16 25.6 78.848 10.24 204.8-2.048 12.288-2.048 17.408-3.072 6.144 0 9.216 1.024 3.072 13.312-1.024 38.912-10.24 79.872-29.696 47.104-21.504 104.448-71.68 46.080-39.936 89.088-91.136 33.792-39.936 81.92-106.496 41.984-58.368 90.112-78.848 29.696-10.24 49.152-7.168t29.696 20.48 15.36 37.888 4.096 46.080q0 49.152-12.288 98.304-3.072 12.288-8.192 28.672-14.336 44.032-41.984 86.016-53.248 80.896-138.24 126.976t-182.272 46.080q-67.584 0-128-22.528-81.92-28.672-143.36-91.136t-91.136-145.408q-1.024-5.12-4.096-14.336t-5.12-14.336q-12.288-51.2-11.264-98.304z" />
<glyph unicode="&#xe839;" glyph-name="star-empty" horiz-adv-x="950" d="M649.216 377.417l175.104 168.96-240.64 35.84-108.544 218.112-107.52-218.112-241.664-35.84 175.104-168.96-41.984-240.64 216.064 113.664 216.064-113.664zM951.296 581.193q0-12.288-15.36-27.648l-207.872-201.728 49.152-285.696q1.024-4.096 1.024-12.288 0-28.672-23.552-28.672-10.24 0-22.528 7.168l-257.024 135.168-256-135.168q-13.312-7.168-23.552-7.168-11.264 0-17.408 9.216t-6.144 19.456q0 4.096 1.024 12.288l49.152 285.696-207.872 201.728q-14.336 15.36-14.336 27.648 0 21.504 31.744 26.624l286.72 40.96 129.024 260.096q11.264 23.552 27.648 23.552t28.672-23.552l128-260.096 286.72-40.96q32.768-5.12 32.768-26.624z" />
<glyph unicode="&#xe83a;" glyph-name="star-half" horiz-adv-x="950" d="M677.888 404.041l146.432 142.336-202.752 29.696-37.888 6.144-17.408 34.816-91.136 183.296v-549.888l33.792-17.408 182.272-96.256-34.816 202.752-7.168 37.888zM935.936 553.545l-206.848-201.728 48.128-285.696q3.072-19.456-3.072-29.696t-19.456-11.264q-9.216 0-22.528 7.168l-257.024 135.168-256-135.168q-13.312-7.168-23.552-7.168-12.288 0-19.456 11.264t-3.072 29.696l49.152 285.696-207.872 201.728q-18.432 18.432-13.312 33.792t30.72 20.48l286.72 40.96 129.024 260.096q11.264 23.552 27.648 23.552t28.672-23.552l128-260.096 286.72-40.96q25.6-4.096 30.72-20.48t-13.312-33.792z" />
<glyph unicode="&#xe83b;" glyph-name="comments" horiz-adv-x="1331" d="M0 838.217c0 55.296 70.656 112.64 125.952 112.64h785.408c55.296 0 112.64-59.392 112.64-114.688v-387.072c0-55.296-39.936-112.64-95.232-112.64h-416.768l-307.2-204.8v168.96c0 26.624-17.408 35.84-44.032 35.84h-56.32c-55.296 0-104.448 57.344-104.448 112.64v389.12zM1126.4 848.457v-501.76c0-55.296-39.936-112.64-95.232-112.64h-309.248l302.080-307.2v204.8h212.992c54.272 0 94.208 57.344 94.208 111.616v519.168c0 54.272-39.936 86.016-94.208 86.016h-110.592z" />
<glyph unicode="&#xe83c;" glyph-name="close" horiz-adv-x="702" d="M0 172.617q0 36.864 26.624 63.488l199.68 199.68-199.68 200.704q-26.624 25.6-26.624 62.464t26.624 62.464 62.464 25.6 62.464-25.6l200.704-200.704 199.68 200.704q25.6 25.6 62.464 25.6t62.464-25.6 25.6-62.464-25.6-62.464l-199.68-200.704 199.68-199.68q25.6-26.624 25.6-63.488t-25.6-62.464-62.464-25.6-62.464 25.6l-199.68 199.68-200.704-199.68q-25.6-25.6-62.464-25.6t-62.464 25.6q-26.624 26.624-26.624 62.464z" />
<glyph unicode="&#xe83d;" glyph-name="read-down" horiz-adv-x="887" d="M64.512 664.137l378.88-364.544 380.928 364.544q22.528 26.624 49.152 0 26.624-22.528 0-49.152l-405.504-401.408q-22.528-22.528-49.152 0l-405.504 401.408q-26.624 26.624 0 49.152 24.576 24.576 51.2 0z" />
<glyph unicode="&#xe83e;" glyph-name="mobile" horiz-adv-x="878" d="M877.979 186.2c-0.123 18.103-14.766 32.748-32.858 32.874h-812.23c-18.103-0.123-32.748-14.766-32.871-32.858v-20.568c0.123-18.103 14.766-32.748 32.86-32.871h812.23c18.103 0.123 32.748 14.766 32.874 32.858v20.568zM877.979 449.168c-0.146 18.084-14.784 32.706-32.86 32.826h-812.23c-18.103-0.123-32.748-14.766-32.871-32.858v-20.522c0.123-18.103 14.766-32.748 32.86-32.871h812.23c18.103 0.123 32.748 14.766 32.874 32.858v20.522zM877.979 712.132c-0.146 18.084-14.784 32.703-32.86 32.826h-812.23c-18.089-0.122-32.723-14.742-32.871-32.813v-20.57c0.123-18.103 14.766-32.748 32.86-32.871h812.23c18.103 0.123 32.748 14.766 32.874 32.86v20.568z" />
<glyph unicode="&#xe900;" glyph-name="close-mobile" d="M59.328-53.399c4.608 0 9.184 1.856 12.512 5.152l440.32 440.32 440.096-440.096c3.296-3.296 7.872-5.152 12.48-5.152s9.184 1.856 12.512 5.152l21.568 21.6c3.328 3.328 5.152 7.904 5.152 12.512 0 4.576-1.824 9.184-5.152 12.48l-440.064 440.096 440.32 440.32c3.296 3.296 5.152 7.904 5.152 12.48 0 4.608-1.856 9.184-5.152 12.512l-21.824 21.824c-3.328 3.328-7.904 5.152-12.512 5.152s-9.184-1.824-12.48-5.152l-440.352-440.32-440.32 440.32c-3.296 3.328-7.904 5.152-12.48 5.152-4.608 0-9.184-1.824-12.512-5.152l-21.6-21.6c-3.296-3.296-5.12-7.904-5.12-12.48 0-4.608 1.824-9.184 5.12-12.512l440.32-440.32-440.32-440.32c-3.296-3.296-5.12-7.904-5.12-12.48 0-4.608 1.824-9.184 5.12-12.512l21.856-21.824c3.296-3.296 7.904-5.152 12.48-5.152z" />
<glyph unicode="&#xe901;" glyph-name="modal-back" d="M768.384 893.257c-0.125 6.316-2.69 12.009-6.788 16.196l-32.956 35.324c-3.663 4.324-9.097 7.051-15.168 7.051s-11.505-2.727-15.144-7.022l-487.128-489.437c-4.088-4.193-6.609-9.93-6.609-16.256s2.521-12.063 6.614-16.261l487.291-489.595c3.652-4.345 9.090-7.087 15.168-7.087s11.516 2.742 15.143 7.056l32.985 35.358c4.088 4.193 6.609 9.93 6.609 16.256s-2.521 12.063-6.614 16.261l-437.243 437.755 437.056 438.080c4.011 4.28 6.549 9.983 6.783 16.274z" />
<glyph unicode="&#xe902;" glyph-name="modal-close" d="M1024-16.055c-0.038 6.495-2.671 12.369-6.913 16.641l-438.399 438.271 438.912 438.208c4.242 4.278 6.864 10.169 6.864 16.672s-2.621 12.394-6.865 16.674l-33.406 33.342c-4.281 4.261-10.185 6.896-16.704 6.896s-12.423-2.634-16.705-6.896l-438.783-438.207-438.848 438.208c-4.281 4.261-10.185 6.896-16.704 6.896s-12.423-2.634-16.705-6.896l-33.343-33.343c-4.242-4.278-6.864-10.169-6.864-16.672s2.621-12.394 6.865-16.674l438.718-438.206-438.72-438.272c-4.258-4.271-6.89-10.164-6.89-16.672s2.632-12.401 6.891-16.673l33.407-33.343c4.288-4.246 10.19-6.869 16.704-6.869s12.416 2.623 16.706 6.871l438.782 438.206 438.72-438.208c4.288-4.246 10.19-6.869 16.704-6.869s12.416 2.623 16.706 6.871l33.406 33.342c4.005 4.241 6.468 9.977 6.468 16.288 0 0.146-0.001 0.292-0.004 0.438z" />
<glyph unicode="&#xe903;" glyph-name="category" horiz-adv-x="1946" d="M1925.736 434.027c0.004 0.332 0.006 0.724 0.006 1.112 0 25.302-9.465 48.391-25.055 65.918l-397.973 416.882c-15.711 15.752-37.397 25.535-61.37 25.665-23.687-0.225-45.024-10.002-60.402-25.652l-31.716-37.957c-15.824-15.396-25.641-36.896-25.641-60.69s9.817-45.295 25.623-60.671l213.291-220.236h-1484.452c-37.902-2.145-67.829-33.405-67.829-71.654 0-5.17 0.546-10.213 1.586-15.071l-0.085-26.2c-0.955-4.389-1.501-9.432-1.501-14.601 0-38.249 29.923-69.509 67.639-71.646l1484.442-0.009-216.393-216.393c-15.821-15.643-25.62-37.349-25.62-61.345s9.797-45.7 25.611-61.337l31.712-37.953c15.605-15.204 36.864-24.673 60.333-24.96 23.917 0.188 45.527 9.665 61.482 24.989l401.352 404.174c15.508 17.817 24.963 41.261 24.963 66.912 0 0.255-0.001 0.508-0.003 0.763z" />
<glyph unicode="&#xe904;" glyph-name="header-template" horiz-adv-x="5916" d="M5852.729 785.765l-842.638-858.908-681.188 688.356-688.014-687.787-1.479-0.569-681.188 688.128-681.87-688.128h-0.796l-684.828 688.356-680.505-688.356h-1.707l-848.441 855.381 167.481 167.822 681.529-684.715 681.188 684.828 0.569-0.569v0.569l684.828-684.828 681.301 684.26 1.252 0.455 681.301-684.828 688.356 684.828 0.569-0.569 0.569 0.569 681.188-684.828 678.684 684.828z" />
<glyph unicode="&#xe905;" glyph-name="home" horiz-adv-x="951" d="M804.571 384v-274.286c0-20-16.571-36.571-36.571-36.571h-219.429v219.429h-146.286v-219.429h-219.429c-20 0-36.571 16.571-36.571 36.571v274.286c0 1.143 0.571 2.286 0.571 3.429l328.571 270.857 328.571-270.857c0.571-1.143 0.571-2.286 0.571-3.429zM932 423.428l-35.429-42.286c-2.857-3.429-7.429-5.714-12-6.286h-1.714c-4.571 0-8.571 1.143-12 4l-395.429 329.714-395.429-329.714c-4-2.857-8.571-4.571-13.714-4-4.571 0.571-9.143 2.857-12 6.286l-35.429 42.286c-6.286 7.429-5.143 19.429 2.286 25.714l410.857 342.286c24 20 62.857 20 86.857 0l139.429-116.571v111.429c0 10.286 8 18.286 18.286 18.286h109.714c10.286 0 18.286-8 18.286-18.286v-233.143l125.143-104c7.429-6.286 8.571-18.286 2.286-25.714z" />
<glyph unicode="&#xe906;" glyph-name="line" d="M826.24 530.377c14.848 0 26.88-12.16 26.88-26.88s-12.032-26.88-26.88-26.88h-74.88v-48h74.88c14.848 0 26.88-12.032 26.88-26.88 0-14.72-12.032-26.88-26.88-26.88h-101.76c-14.72 0-26.752 12.16-26.752 26.88v203.52c0 14.72 12.032 26.88 26.88 26.88h101.76c14.72 0 26.752-12.16 26.752-26.88 0-14.848-12.032-26.88-26.88-26.88h-74.88v-48h74.88zM661.76 401.737c0-11.52-7.424-21.76-18.432-25.472-2.752-0.896-5.632-1.28-8.512-1.28-8.96 0-16.64 3.84-21.76 10.688l-104.256 141.504v-125.44c0-14.72-11.904-26.88-26.88-26.88-14.72 0-26.688 12.16-26.688 26.88v203.52c0 11.52 7.36 21.76 18.304 25.408 2.56 0.96 5.76 1.408 8.32 1.408 8.32 0 16-4.48 21.12-10.88l105.024-142.016v126.080c0 14.72 12.032 26.88 26.88 26.88 14.72 0 26.88-12.16 26.88-26.88v-203.52zM416.768 401.737c0-14.72-12.032-26.88-26.88-26.88-14.72 0-26.752 12.16-26.752 26.88v203.52c0 14.72 12.032 26.88 26.88 26.88 14.72 0 26.752-12.16 26.752-26.88v-203.52zM311.552 374.857h-101.76c-14.72 0-26.88 12.16-26.88 26.88v203.52c0 14.72 12.16 26.88 26.88 26.88 14.848 0 26.88-12.16 26.88-26.88v-176.64h74.88c14.848 0 26.88-12.032 26.88-26.88 0-14.72-12.032-26.88-26.88-26.88zM1024 511.177c0 229.12-229.76 415.616-512 415.616s-512-186.496-512-415.616c0-205.312 182.144-377.344 428.16-409.92 16.64-3.584 39.36-11.008 45.12-25.216 5.12-12.8 3.392-32.64 1.664-46.080l-7.040-43.52c-1.92-12.8-10.24-50.56 44.8-27.52s295.040 174.080 402.56 297.6c73.536 80.576 108.736 163.136 108.736 254.656z" />
<glyph unicode="&#xe907;" glyph-name="viber" d="M887.936 851.017c-25.472 23.424-128.256 98.112-357.376 99.2 0 0-270.080 16.192-401.728-104.576-73.28-73.344-99.072-180.48-101.76-313.6-2.752-132.864-6.272-382.080 234.048-449.664h0.192l-0.192-103.168s-1.472-41.728 25.984-50.24c33.28-10.24 52.736 21.504 84.48 55.68 17.472 18.752 41.472 46.336 59.648 67.456 164.288-13.824 290.688 17.728 305.024 22.4 33.152 10.88 220.8 34.816 251.392 284.032 31.488 256.96-15.232 419.392-99.712 492.672zM915.776 376.905c-26.24-208-178.56-221.248-206.080-230.208-12.16-3.84-123.52-31.488-263.040-22.4 0 0-104.32-125.44-136.32-158.080-5.12-5.12-11.52-7.040-15.36-6.144-5.76 1.28-7.040 7.68-7.040 17.28l0.64 170.88c-0.64 0 0 0 0 0-203.52 56.96-191.36 268.8-188.8 380.16 1.92 110.72 23.040 201.6 85.12 263.040 111.424 101.184 341.184 85.824 341.184 85.824 193.792-0.64 286.72-59.072 308.16-78.72 71.424-61.12 107.84-207.552 81.28-422.080zM330.24 738.377c10.368 0 19.648-4.672 26.88-13.248 0.128-0.128 24.768-29.696 35.392-44.16 10.048-13.632 23.488-35.392 30.336-47.552 12.16-21.76 4.48-44.032-7.36-53.248l-24.128-19.2c-12.16-9.728-10.688-27.904-10.688-27.904s35.84-134.72 168.96-168.64c0 0 18.112-1.664 27.904 10.496l19.2 24.32c9.088 12.16 31.36 19.84 53.12 7.68 12.16-6.4 33.92-19.84 47.616-30.080 14.464-10.24 44.032-35.2 44.16-35.2 14.080-11.52 17.28-29.44 7.68-47.36v-0.64c-9.856-17.28-23.040-33.28-39.808-48.64h-0.32c-13.44-11.52-26.88-17.92-40.32-19.2-1.28 0-3.2-0.64-5.76 0-5.76 0-11.52 1.28-17.28 2.56v0.64c-20.48 5.76-54.4 20.48-110.72 51.84-36.48 20.48-67.2 40.96-93.44 62.080-13.44 10.88-27.52 23.040-41.6 37.12l-3.264 1.216-2.56 2.56c-14.080 14.080-26.24 28.16-37.12 41.792-20.48 25.984-40.96 56.64-61.44 93.44-31.36 56.32-46.080 90.24-51.84 110.72h-0.64c-1.92 5.76-3.2 11.52-2.56 17.28-0.64 2.56 0 4.48 0 5.952 1.28 12.8 8.064 26.24 19.52 40.32h0.192c15.168 16.64 31.488 30.080 48.896 39.808 7.040 3.84 14.080 5.76 20.48 5.76h0.64zM504.96 767.561h4.992l3.2-0.128h0.832l3.84-0.192h21.76l5.76-0.64h3.2l6.4-0.64h1.28l4.48-0.64h0.64l3.2-0.64c1.92 0 3.2-0.64 4.48-0.64h3.84l3.2-1.28 5.12-1.28 1.28-0.64h1.92l1.92-0.64h1.28l3.2-0.64 3.84-1.28 2.56-0.64 1.28-0.64c1.28 0 2.56-0.64 3.84-0.64l3.84-1.28 5.12-1.92 2.56-1.28 5.76-2.56 3.84-1.28 3.84-1.92 2.56-0.64 1.28-0.64 3.2-1.28 3.84-1.92 1.92-0.64 1.92-1.28 2.56-1.28 1.92-1.28 3.84-1.92 1.92-1.28 3.2-1.92 1.92-0.64 3.2-1.92 0.64-0.64 1.92-1.28 3.84-3.2 3.84-2.56 1.28-0.64 1.92-1.28 3.2-3.2 2.56-1.92 1.92-1.28 0.64-0.64 1.28-0.64 3.2-2.56 3.2-3.2 3.84-2.56 1.28-0.64 14.72-14.72c0.64-0.64 1.92-1.92 2.56-3.2l1.28-1.28 7.040-8.32 1.92-2.56c0.64-0.64 0.64-1.28 1.28-1.28l3.84-5.76 1.92-1.92 3.84-5.12 3.2-5.12 1.92-3.84 2.56-4.48 10.24-20.48 1.28-3.2c2.56-5.76 4.48-11.52 7.040-17.92 3.2-8.32 5.76-17.28 7.68-26.88 1.92-7.040 3.2-13.44 4.48-20.48l1.28-11.52 1.92-12.8c0.64-5.12 1.28-10.88 1.28-16 0.64-5.12 0.64-10.24 0.64-15.36v-10.88c0-0.64-0.32-1.28-0.64-1.92-0.64-1.28-1.28-1.92-2.56-3.2-0.896-0.64-2.112-1.92-3.392-1.92-1.28-0.64-2.56-0.64-3.84-0.64h-1.92c-1.28 0-2.56 0.64-3.84 1.28s-2.56 1.28-3.2 2.56c-0.64 1.28-1.92 2.56-2.56 3.84s-1.28 2.56-1.28 3.84v15.296c-0.64 8.96-1.28 18.176-2.56 27.264-0.64 6.272-1.92 12.16-2.56 17.92 0 3.2-0.64 6.272-1.28 8.96l-1.28 6.4-1.536 5.76-0.64 3.84-1.92 6.4c-1.28 5.12-3.2 10.24-5.12 15.36-1.28 3.84-2.56 7.040-4.48 10.24l-1.28 3.2-5.76 11.52-1.28 1.92c-2.56 5.76-5.76 11.52-9.6 16.64l-1.92 3.2h-8.576l-2.752 3.84c-2.304 3.84-4.864 7.040-7.68 10.24l-5.312 6.4-0.64 0.64-1.92 2.432-1.536 1.92-3.2 3.2-0.64 1.28-3.008 2.56-1.92 1.92-3.52 3.2-1.728 1.6-2.56 2.56c-0.64 0.64-1.92 1.92-3.2 2.56l-3.264 2.624-1.28 0.64-2.56 1.92-5.12 4.096-1.28 0.64-2.56 2.304c0 0.64-0.64 0.64-1.28 0.64l-1.92 1.92v0.64l-1.28 0.64-2.56 1.6-1.92 1.28-3.2 1.92-2.56 1.92-2.56 1.28h-3.84l-0.832 0.64-2.816 1.472-0.32 0.64-3.2 1.6h-0.512l-1.92 0.64-1.088 0.64-1.92 0.64-0.448 0.448-1.28 0.64-2.24 1.28-1.28 0.64-3.84 1.28-3.2 1.28-5.76 0.64-1.92 1.28c-0.64 0.384-1.28 0.64-1.92 0.64l-1.28 0.64c-1.28 0.448-1.92 0.64-3.2 1.28l-1.28 0.64h-1.28l-3.84 1.92-1.92 0.64h-3.904c-0.32 0-0.768 0.192-1.28 0.32h-3.84l-1.92 0.64h-0.64l-1.92 0.64h-1.728c-1.088 0.64-1.92 0.64-3.008 0.64l-0.384 0.64-2.56 0.64c-1.28 0.64-2.368 0.64-3.584 0.64l-1.92 0.64-2.112 0.64-1.92 0.64-2.56 0.64h-2.624l-7.68 1.152h-3.84l-4.992 0.64h-3.2l-2.944 0.384h-1.28l-2.304 0.64h-12.16l-0.448 0.64h-2.56c-1.28 0-2.752 0.64-3.84 1.28-1.28 0.64-2.56 1.28-3.456 2.56l-1.28 1.92c-1.28 1.28-1.28 2.56-1.92 3.84s-0.64 2.56-0.64 3.84c0 1.28 0 2.56 0.64 3.84s1.28 2.56 2.56 3.2c0.64 1.28 1.92 1.92 3.2 2.56s2.56 1.28 3.84 1.28h2.56zM528.64 700.361l1.536-0.128 2.56-0.256c0.384 0 0.768 0 1.28-0.128 0.96 0 1.92-0.192 3.2-0.256l2.56-0.32 1.024-0.64 1.92-0.64 2.048-0.64 1.92-0.64h1.28l1.792-0.64 3.008-0.64 2.368-0.64 1.152-0.64h3.072l5.12-1.28 5.76-1.92s0.64 0 0.64-0.64l5.76-1.92c0.64 0 1.28-0.64 1.92-0.64 0.32 0 0.64-0.64 1.088-0.64l2.752-1.28h1.28l3.84-1.28 2.112-1.28 1.92-1.28 4.672-1.92 2.56-0.64 1.28-1.28c1.92-0.64 3.84-1.92 5.76-2.56l4.096-2.56 2.112-1.28c1.92-1.28 3.456-1.92 5.12-3.2l1.28-0.64 1.728-1.28 0.96-0.64 3.2-1.92 1.6-1.28 2.752-1.92 2.56-1.28 1.92-1.28 2.56-1.92c0.64-0.64 0.96-0.64 1.472-1.28 0.384-0.64 0.64-0.64 1.088-1.28l1.408-1.28 1.536-1.28 9.6-9.6c0-0.64 0.64-1.28 1.28-1.28l2.56-2.56 1.28-1.92 1.28-1.28 1.92-2.56 1.92-1.92 3.84-5.12 0.64-1.28 2.56-3.2 2.56-5.12c0.64-0.64 0.64-1.28 1.28-2.56l1.92-3.2 0.64-0.64 1.28-2.56 1.28-1.92c0.64-0.64 0.64-1.28 1.28-1.92l1.28-1.92 2.56-5.12 0.64-1.92c0.64-1.92 1.92-3.2 2.56-5.12 0-0.64 0.64-1.28 0.64-1.92l1.92-5.12 2.56-8.32c0-0.64 0.64-1.92 0.64-2.56l1.92-5.76 1.92-7.68 1.92-10.24c0.64-3.2 0.64-5.76 1.28-8.96 0.64-5.12 1.28-10.24 1.28-15.36l0.64-8.96v-7.040c0-0.64 0-1.28-0.64-1.92l-1.856-1.856c-1.28-0.96-1.92-1.92-3.2-2.56s-2.56-1.28-3.84-1.728c-1.28-0.64-3.2-0.64-4.48-0.64s-2.56 0.64-3.84 1.28c-0.64 0-1.28 0.64-1.92 0.896-1.28 0.64-2.56 1.664-3.2 2.816-1.28 1.28-1.92 2.56-1.92 3.84l-0.64 1.92v13.376c0 5.632-0.64 10.88-1.28 16.384-0.64 5.76-1.92 12.16-3.2 17.92-1.28 3.84-1.92 7.68-3.2 11.136l-1.28 3.84-1.28 3.2-0.64 1.28-1.92 5.12-5.12 10.24-2.944 5.12v0.64l-1.28 2.048-1.28 1.6-1.92 3.2-5.76 7.68c-1.92 2.56-3.84 5.12-6.016 7.552-0.64 0.64-1.28 1.28-1.28 1.92l-1.92 1.92-1.28 0.64-1.28 1.152v6.208l-5.12 4.864-3.2 2.88v0.64l-1.28 1.28-1.6 1.28-0.64 0.64c0 0.64-0.64 0.64-1.28 0.64l-1.92 0.64-0.64 0.64-2.56 1.92-1.28 1.28c-0.512 0.64-0.96 0.64-1.28 0.64l-2.56 1.92-0.64 0.64-2.56 1.28-0.448 0.64-1.92 1.28-1.28 0.64-2.56 2.56h-0.64c-1.28 1.28-2.56 1.92-4.48 2.56l-1.92 1.28-1.28 0.64-0.64 0.64-1.92 1.28-1.92 0.64-2.56 1.28-1.92 0.64-0.64 0.64-2.368 0.64v0.64l-3.84 1.28-3.84 1.92h-2.56c-1.28 0.64-1.92 0.64-3.2 1.28h-1.984l-1.92 0.64h-1.92l-1.92 0.64-1.28 0.64h-2.56l-2.56 0.64-1.28 0.64h-7.040l-2.944 0.64h-14.976l-1.92 0.64c-1.28 0.64-2.56 1.28-3.84 2.56-0.64 1.28-1.92 2.56-2.56 3.84s-1.28 2.56-1.28 3.84v3.84c0.192 1.92 0.64 3.2 1.28 4.48 0.32 0.64 0.64 1.28 1.28 1.92 0.768 1.28 1.92 2.56 3.2 3.2 0.64 0.64 1.28 0.64 1.92 1.28 1.28 0.64 2.56 0.64 3.84 0.64h2.56zM547.968 630.857c0.64 0 1.28 0 1.92-0.128 0.64 0 1.28 0 1.92-0.128l2.176-0.192c4.48-0.384 9.088-1.024 13.568-1.92l4.48-1.024 1.088-0.32 4.864-1.28 2.56-0.832 1.92-0.64c1.92-0.64 3.84-1.92 5.76-2.56l0.64-0.64 7.68-3.84c0.64-0.64 1.28-0.64 1.92-1.28s1.92-1.28 2.56-1.92c2.56-1.28 4.48-3.2 6.4-4.48l4.48-3.84 3.84-3.84 2.56-3.2 2.56-2.56 1.92-2.56 3.84-5.76 3.2-5.76 2.56-5.12 1.92-4.48c1.92-4.48 2.56-8.32 3.84-12.8 1.28-3.84 1.92-8.32 2.56-12.16l0.64-6.4 0.64-5.76v-2.56c0-1.92-0.64-3.2-1.28-4.48s-1.92-3.2-3.2-3.84c-1.28-1.28-2.56-1.92-4.48-2.56-1.28-0.64-2.56-0.64-3.84-0.64s-2.56 0-3.84 0.64l-4.48 1.92c-1.28 1.28-2.56 1.92-3.84 3.84-0.64 1.28-1.28 2.56-1.92 4.48v7.040l-0.64 4.48-0.64 5.12-0.64 4.48-0.64 2.56c0 0.64-0.64 1.92-0.64 2.56-1.28 5.12-3.84 10.24-6.4 15.36l-2.56 2.56-1.92 2.56-1.92 1.92-0.64 1.28-3.2 2.56-2.56 2.56-2.56 1.92c-0.64 0.64-1.28 0.64-2.56 1.28l-3.84 2.56-3.84 1.92h-0.64l-3.264 1.344-3.84 1.28-3.84 0.64h-3.2l-1.92 0.64-1.536 0.32h-1.92l-2.56 0.64h-10.88l-0.64 3.2h-1.664c-1.28 0.192-2.304 0.64-3.392 1.28-1.472 0.896-2.752 1.92-3.84 3.392-0.768 1.28-1.472 2.56-1.92 3.84-0.32 1.28-0.512 2.56-0.512 3.84 0 1.6 0 3.2 0.64 4.864s1.28 3.008 2.56 4.224l2.56 1.92c1.28 0.64 2.56 1.28 3.84 1.28l2.624 3.2h1.28z" />
<glyph unicode="&#xe908;" glyph-name="dailymotion" d="M600.235 468.167c-74.837 0-132.437-60.885-132.437-132.693 0-74.795 57.6-131.627 138.88-131.627l-0.683-0.085c67.84 0 124.8 55.893 124.8 129.707 0 76.8-57.003 134.699-130.645 134.699zM0 950.855v-1024h1024v1024h-1024zM882.901 63.090h-152.576v60.16c-46.933-46.080-94.848-62.72-158.507-62.72-64.939 0-120.832 21.12-167.68 63.36-61.781 54.4-93.781 126.72-93.781 210.603 0 76.8 29.867 145.664 85.76 199.424 49.92 48.896 110.72 73.813 178.56 73.813 64.853 0 114.773-21.888 150.613-67.84v233.6l157.568 32.597v-742.997z" />
<glyph unicode="&#xe909;" glyph-name="twitch" d="M89.131 950.855l-66.731-178.133v-712.277h244.736v-133.589h133.632l133.419 133.632h200.32l267.093 267.008v623.36h-912.469zM178.133 861.895h734.507v-489.771l-155.819-155.819h-244.821l-133.419-133.419v133.419h-200.448v645.589zM423.040 416.583h88.96v267.093h-88.96v-267.093zM667.733 416.583h89.003v267.093h-89.003v-267.093z" />
<glyph unicode="&#xe90a;" glyph-name="xing" d="M776.021 950.855c-22.059 0-31.616-13.867-39.552-28.16 0 0-318.080-564.224-328.619-582.699 0.64-1.024 209.877-384.981 209.877-384.981 7.253-13.141 18.603-28.16 41.259-28.16h147.371c9.003 0 16 3.328 19.755 9.387 3.797 6.443 3.797 14.763-0.384 22.869l-208.171 380.416c-0.171 0.256-0.171 0.683 0 0.939l327.040 578.133c4.053 8.149 4.139 16.512 0.256 22.827-3.797 6.101-10.709 9.429-19.584 9.429h-149.248zM155.648 748.615c-9.003 0-16.427-3.157-20.181-9.216-3.84-6.357-3.328-14.464 0.853-22.656l99.84-172.8c0.171-0.427 0.171-0.683 0-0.896l-156.8-277.035c-4.224-8.021-3.968-16.256 0-22.571 3.627-6.059 10.197-9.984 19.2-9.984h147.669c22.101 0 32.683 14.848 40.32 28.459l159.317 281.984-101.461 177.28c-7.339 13.44-18.517 28.117-41.045 28.117h-147.712v-0.683z" />
<glyph unicode="&#xe90b;" glyph-name="ebay" horiz-adv-x="2112" d="M534.252 427.449v431.86h105.335v-265.621c51.795 61.72 123.053 79.534 193.285 79.534 117.626 0 248.236-79.341 248.236-250.603 0-20.444-1.315-40.127-5.26-58.633 21.067 83.645 111.837 114.54 254.191 117.96 44.764 1.578 96.103 1.578 136.922 1.578v11.862c0 77.693-48.806 109.183-134.292 109.183-63.201 0-109.28-26.327-114.54-71.091h-111.91c11.932 113.225 131.662 142.209 235.779 142.209 93.403 0 175.111-23.697 211.985-89.528l-38.259 73.721h123.772l180.371-362.084 180.371 362.157h109.114l-326.525-641.212h-118.152l93.929 179.056-204.524 384.466c11.406-22.382 17.551-48.709 17.551-81.638v-215.93c0-30.369 0.886-60.571 3.516-88.213h-97.778c-2.63 22.382-4.042 44.764-4.042 67.146-52.917-64.419-115.855-84.268-203.639-84.268-129.918 0-199.431 68.461-199.431 148.784 0 13.177 1.315 24.915 3.253 35.559-26.327-109.377-119.371-183.098-242.88-183.098-76.378 0-148.687 27.642-193.119 81.638 0-21.067-1.315-43.352-3.516-64.419h-103.566c1.744 34.244 3.516 75.037 3.516 109.28v92.158h-423.967c5.716-96.103 71.81-152.729 162.653-152.729 63.035 0 118.941 26.327 137.641 81.638h108.851c-21.067-113.225-141.323-151.414-244.887-151.414-188.095-1.841-271.502 102.345-271.502 241.921 0 153.948 86.206 255.434 273.511 255.434 148.161 0 257.178-77.763 258.064-246.299v-0.429zM1336.28 411.379c-96.103-2.99-155.359-20.444-155.359-83.382 0-40.819 31.587-85.154 114.54-85.154 110.595 0 169.851 60.571 169.851 159.234v11.406c-39.504 0-86.898-0.526-130.25-1.938h1.052zM804.345 246.788c97.444 0 164.661 70.758 164.661 177.312s-67.409 177.312-166.169 177.312c-97.444 0-165.906-70.758-165.906-177.312s67.146-177.312 164.591-177.312h2.63zM422.512 467.479c-3.848 98.76-74.966 135.704-151.414 135.704-82.856 0-148.687-41.608-159.304-135.704h310.719z" />
<glyph unicode="&#xe90c;" glyph-name="acolade" d="M637.133 472.188v-67.482c-66.662 0-92.211-23.91-92.211-85.606v-152.294c0-75.75-40.32-113.613-148.992-113.613l-9.062 64.205c57.626 0 80.666 15.642 80.666 50.995v142.848c0 58.445 19.507 113.178 78.771 127.181-59.264 14.822-78.771 69.555-78.771 128v142.848c0 34.611-23.040 51.046-80.666 51.046l9.062 64.205c108.672 0 148.992-37.862 148.992-113.587v-153.114c0-61.747 25.523-85.632 92.211-85.632z" />
<glyph unicode="&#xe90d;" glyph-name="backslash" d="M364.211 832.892l376.986-788.096h-81.357l-377.062 788.096z" />
<glyph unicode="&#xe90e;" glyph-name="bracket-square" d="M419.891 748.95v73.446h184.218v-767.078h-184.218v73.446h110.771v620.186z" />
<glyph unicode="&#xe90f;" glyph-name="circle" d="M716.8 438.857c0-113.108-91.692-204.8-204.8-204.8s-204.8 91.692-204.8 204.8c0 113.108 91.692 204.8 204.8 204.8s204.8-91.692 204.8-204.8z" />
<glyph unicode="&#xe910;" glyph-name="circle-full" d="M716.8 438.857c0-113.108-91.692-204.8-204.8-204.8s-204.8 91.692-204.8 204.8c0 113.108 91.692 204.8 204.8 204.8s204.8-91.692 204.8-204.8z" />
<glyph unicode="&#xe911;" glyph-name="circle-line" d="M512 781.615c-189.312-0.026-342.733-153.446-342.758-342.758 0.026-189.312 153.446-342.733 342.758-342.758 189.286 0.026 342.733 153.446 342.758 342.758-0.026 189.312-153.472 342.733-342.758 342.758zM702.413 248.444c-48.845-48.794-115.942-78.848-190.413-78.874-74.47 0.026-141.568 30.080-190.413 78.874-48.819 48.87-78.899 115.942-78.925 190.413 0.026 74.47 30.106 141.542 78.899 190.413 48.87 48.819 115.968 78.874 190.438 78.899 74.445-0.026 141.542-30.080 190.413-78.899 48.794-48.845 78.874-115.917 78.899-190.413-0.026-74.47-30.106-141.542-78.899-190.413z" />
<glyph unicode="&#xe912;" glyph-name="circless" d="M604.314 258.070c0-50.983-41.33-92.314-92.314-92.314s-92.314 41.33-92.314 92.314c0 50.983 41.33 92.314 92.314 92.314s92.314-41.33 92.314-92.314zM604.314 619.644c0-50.983-41.33-92.314-92.314-92.314s-92.314 41.33-92.314 92.314c0 50.983 41.33 92.314 92.314 92.314s92.314-41.33 92.314-92.314zM423.526 438.857c0-50.983-41.33-92.314-92.314-92.314s-92.314 41.33-92.314 92.314c0 50.983 41.33 92.314 92.314 92.314s92.314-41.33 92.314-92.314zM785.101 438.857c0-50.983-41.33-92.314-92.314-92.314s-92.314 41.33-92.314 92.314c0 50.983 41.33 92.314 92.314 92.314s92.314-41.33 92.314-92.314z" />
<glyph unicode="&#xe913;" glyph-name="comma-round" d="M581.274 267.695c0 16.256-3.123 32-8.525 45.696-2.944 7.859-7.424 15.949-12.314 21.709-12.262 14.438-30.362 23.757-50.739 23.757-36.941 0-66.944-29.952-66.944-66.893s30.003-66.944 66.944-66.944c0.845 0 1.69 0.256 2.56 0.256v-0.051c-3.046-21.939-23.731-51.61-50.381-73.293l36.838-42.65c57.395 44.314 82.56 105.421 82.56 158.413z" />
<glyph unicode="&#xe914;" glyph-name="comma-square" d="M429.082 152.009c57.779 5.862 86.272 35.149 82.074 82.893h-49.843v133.99h133.581v-113.050c0-110.541-55.245-154.957-154.931-156.646l-10.88 52.813z" />
<glyph unicode="&#xe915;" glyph-name="hash" d="M676.403 517.705l-25.011-153.856h111.488v-70.144h-123.059l-28.826-172.109h-78.822l27.878 172.109h-148.992l-27.904-172.109h-79.77l28.826 172.109h-113.408v70.144h124.979l25.011 153.856h-108.646v70.144h121.139l26.906 168.243h79.795l-27.878-168.243h148.992l27.878 168.243h78.822l-27.878-168.243h117.274v-70.144h-128.794zM597.581 517.705h-149.018l-25.958-153.856h149.965l25.011 153.856z" />
<glyph unicode="&#xe916;" glyph-name="linee" d="M291.917 483.657h440.166v-89.6h-440.166v89.6z" />
<glyph unicode="&#xe917;" glyph-name="pluss" d="M706.483 483.631h-149.683v149.709h-89.6v-149.709h-149.683v-89.6h149.683v-149.658h89.6v149.658h149.683z" />
<glyph unicode="&#xe918;" glyph-name="point-comma-round" d="M576.307 603.363c0-36.887-29.903-66.79-66.79-66.79s-66.79 29.903-66.79 66.79c0 36.887 29.903 66.79 66.79 66.79s66.79-29.903 66.79-66.79zM581.274 263.599c0 16.282-3.123 32.026-8.525 45.696-2.944 7.885-7.424 15.974-12.314 21.734-12.262 14.413-30.362 23.757-50.739 23.757-36.941 0-66.944-29.952-66.944-66.918 0-36.941 30.003-66.918 66.944-66.918 0.845 0 1.69 0.23 2.56 0.256 0-0.026 0-0.051 0-0.077-3.046-21.939-23.731-51.584-50.381-73.293l36.838-42.65c57.395 44.314 82.56 105.446 82.56 158.413z" />
<glyph unicode="&#xe919;" glyph-name="point-comma-square" d="M461.312 679.855h133.581v-133.606h-133.581v133.606zM429.082 148.22c57.779 5.862 86.272 35.149 82.074 82.893h-49.843v134.016h133.581v-113.050c0-110.541-60.39-154.957-160.051-156.621l-5.76 52.762z" />
<glyph unicode="&#xe91a;" glyph-name="point-round" d="M578.79 234.057c0-36.887-29.903-66.79-66.79-66.79s-66.79 29.903-66.79 66.79c0 36.887 29.903 66.79 66.79 66.79s66.79-29.903 66.79-66.79z" />
<glyph unicode="&#xe91b;" glyph-name="point-square" d="M445.21 300.847h133.606v-133.606h-133.606v133.606z" />
<glyph unicode="&#xe91c;" glyph-name="quote-round" d="M673.51 472.495c0 16.282-3.123 32.026-8.525 45.696-2.944 7.885-7.424 15.974-12.314 21.734-12.262 14.413-30.362 23.757-50.739 23.757-36.941 0-66.944-29.952-66.944-66.918 0-36.941 30.003-66.918 66.944-66.918 0.845 0 1.69 0.23 2.56 0.256 0-0.026 0-0.051 0-0.077-3.046-21.939-23.757-51.584-50.406-73.293l36.838-42.65c57.395 44.314 82.586 105.446 82.586 158.413zM489.062 472.495c0 16.282-3.123 32.026-8.525 45.696-2.944 7.885-7.424 15.974-12.314 21.734-12.262 14.413-30.362 23.757-50.739 23.757-36.941 0-66.944-29.952-66.944-66.918 0-36.941 30.003-66.918 66.944-66.918 0.845 0 1.69 0.23 2.56 0.256 0-0.026 0-0.051 0-0.077-3.046-21.939-23.731-51.584-50.381-73.293l36.838-42.65c57.37 44.314 82.56 105.446 82.56 158.413z" />
<glyph unicode="&#xe91d;" glyph-name="quote-square" d="M319.002 351.715c57.779 5.862 86.272 35.149 82.074 82.867h-49.843v133.99h133.606v-113.050c0-110.515-55.27-154.906-154.957-156.621l-10.88 52.813zM523.802 351.715c57.805 5.862 86.298 35.149 82.099 82.867h-49.843v133.99h133.606v-113.050c0-110.515-55.245-154.906-154.982-156.621l-10.88 52.813z" />
<glyph unicode="&#xe91e;" glyph-name="romb-full" d="M783.172 438.857l-271.146-271.146-271.146 271.146 271.146 271.146 271.146-271.146z" />
<glyph unicode="&#xe91f;" glyph-name="romb-line" d="M512 840.7l-401.843-401.843 401.843-401.843 401.843 401.843-401.843 401.843zM214.016 438.857l297.984 297.958 297.958-297.958-297.958-298.010-297.984 298.010z" />
<glyph unicode="&#xe920;" glyph-name="romb-round-full" d="M638.541 312.265c-55.731-55.68-97.613-119.962-126.541-188.365-28.979 68.429-70.835 132.71-126.541 188.365-55.731 55.731-120.038 97.613-188.493 126.592 68.454 28.954 132.762 70.81 188.442 126.515 55.757 55.706 97.613 120.013 126.566 188.442 28.979-68.454 70.835-132.762 126.566-188.416 55.706-55.731 120.013-97.587 188.442-126.541-68.429-28.979-132.736-70.861-188.442-126.592z" />
<glyph unicode="&#xe921;" glyph-name="romb-round-line" d="M667.699 594.505c-70.502 70.528-110.054 159.77-119.142 251.776h-73.062c-9.062-92.006-48.614-181.248-119.142-251.776-70.502-70.477-159.744-110.003-251.802-119.091v-73.088c92.032-9.088 181.299-48.64 251.827-119.142 70.502-70.502 110.029-159.744 119.091-251.699h73.088c9.088 91.955 48.64 181.197 119.142 251.699s159.744 110.054 251.75 119.142v73.088c-92.006 9.088-181.248 48.614-251.75 119.091zM615.757 335.049c-45.645-45.594-80-98.304-103.706-154.394-23.757 56.090-58.086 108.8-103.757 154.394-45.67 45.696-98.381 80.051-154.47 103.808 56.090 23.731 108.8 58.035 154.47 103.706s80 98.381 103.757 154.47c23.757-56.090 58.061-108.8 103.757-154.445 45.645-45.67 98.355-79.974 154.445-103.731-56.141-23.757-108.851-58.112-154.496-103.808z" />
<glyph unicode="&#xe922;" glyph-name="rombs" d="M556.39 216.009c-19.533-19.584-34.253-42.138-44.416-66.15-10.138 24.013-24.858 46.566-44.39 66.15-19.584 19.533-42.138 34.227-66.125 44.39 23.987 10.138 46.541 24.883 66.125 44.416 19.558 19.533 34.278 42.138 44.39 66.15 10.163-24.013 24.883-46.618 44.416-66.15 19.558-19.558 42.138-34.278 66.15-44.416-23.987-10.163-46.592-24.858-66.15-44.39zM556.39 572.873c-19.533-19.533-34.253-42.138-44.416-66.15-10.138 24.013-24.858 46.618-44.39 66.15-19.584 19.558-42.138 34.278-66.125 44.416 23.987 10.138 46.541 24.832 66.125 44.39 19.558 19.558 34.278 42.138 44.39 66.15 10.163-24.013 24.883-46.592 44.416-66.15 19.558-19.584 42.138-34.227 66.15-44.39-23.987-10.138-46.592-24.858-66.15-44.416zM734.848 483.273c19.558-19.584 42.112-34.278 66.15-44.416-24.038-10.163-46.592-24.858-66.15-44.416s-34.253-42.138-44.39-66.15c-10.138 24.013-24.858 46.592-44.39 66.15-19.558 19.558-42.163 34.278-66.227 44.416 24.038 10.163 46.643 24.858 66.202 44.416s34.253 42.138 44.39 66.15c10.163-24.013 24.858-46.618 44.416-66.15zM377.958 483.273c19.558-19.584 42.138-34.278 66.176-44.416-24.013-10.163-46.618-24.858-66.176-44.416s-34.253-42.138-44.39-66.15c-10.138 24.013-24.832 46.592-44.416 66.15-19.533 19.558-42.112 34.278-66.15 44.416 24.013 10.163 46.592 24.858 66.125 44.416 19.61 19.558 34.253 42.138 44.416 66.15 10.163-24.013 24.858-46.618 44.416-66.15z" />
<glyph unicode="&#xe923;" glyph-name="slashh" d="M659.789 832.892l-377.011-788.096h81.434l377.011 788.096z" />
<glyph unicode="&#xe924;" glyph-name="star-full" d="M666.701 357.526l36.506-212.915-191.206 100.557-191.206-100.557 36.531 212.915-154.726 150.784 213.786 31.078 95.616 193.715 95.59-193.715 213.811-31.078z" />
<glyph unicode="&#xe925;" glyph-name="star-line" d="M937.651 542.102l-294.093 42.778-131.558 266.445-131.507-266.445-294.144-42.778 212.813-207.462-25.062-146.253-25.165-146.688 263.066 138.368 263.066-138.342-25.139 146.688-25.088 146.253 212.813 207.437zM645.888 360.316l31.59-184.294-165.478 86.989-165.504-86.989 31.616 184.294-133.914 130.509 185.062 26.906 82.739 167.68 82.765-167.68 185.062-26.906-133.939-130.509z" />
<glyph unicode="&#xe926;" glyph-name="translingual" d="M245.606 355.785c32.563 123.827 76.595 172.698 154.778 172.698 71.706 0 161.306-66.79 218.317-66.79 42.342 0 60.288 21.171 84.762 81.459l74.957-21.171c-32.589-123.827-74.957-172.698-153.19-172.698-73.293 0-162.893 66.79-218.291 66.79-42.368 0-60.288-21.197-84.71-81.485l-76.621 21.197z" />
<glyph unicode="&#xe927;" glyph-name="upp" d="M512 611.452l-345.19-345.19h126.694l218.496 218.496 218.445-218.496h126.746z" />
<glyph unicode="&#xe928;" glyph-name="vertical-line" d="M475.264 832.892h73.446v-788.096h-73.446v788.096z" />
<glyph unicode="&#xe929;" glyph-name="medium" d="M341.143 710.286v-670.286c0-17.714-8.571-34.286-28-34.286-6.857 0-13.143 1.714-18.857 4.571l-265.714 133.143c-16 8-28.571 28.571-28.571 45.714v651.429c0 14.286 6.857 27.429 22.286 27.429 9.143 0 17.143-4.571 25.143-8.571l292-146.286c0.571-0.571 1.714-2.286 1.714-2.857zM377.714 652.571l305.143-494.857-305.143 152v342.857zM1024 642.286v-602.286c0-18.857-10.857-32-29.714-32-9.714 0-18.857 2.857-26.857 7.429l-252 125.714zM1022.286 710.857c0-2.286-295.429-481.714-318.286-518.286l-222.857 362.286 185.143 301.143c6.286 10.286 17.714 16 29.714 16 5.143 0 10.286-1.143 14.857-3.429l309.143-154.286c1.143-0.571 2.286-1.714 2.286-3.429z" />
<glyph unicode="&#xe92a;" glyph-name="github" d="M512 947.369c-282.88 0-512-229.12-512-512 0-226.56 146.56-417.92 350.080-485.76 25.6-4.48 35.2 10.88 35.2 24.32 0 12.16-0.64 52.48-0.64 95.36-128.64-23.68-161.92 31.36-172.16 60.16-5.76 14.72-30.72 60.16-52.48 72.32-17.92 9.6-43.52 33.28-0.64 33.92 40.32 0.64 69.12-37.12 78.72-52.48 46.080-77.44 119.68-55.68 149.12-42.24 4.48 33.28 17.92 55.68 32.64 68.48-113.92 12.8-232.96 56.96-232.96 252.8 0 55.68 19.84 101.76 52.48 137.6-5.12 12.8-23.040 65.28 5.12 135.68 0 0 42.88 13.44 140.8-52.48 40.96 11.52 84.48 17.28 128 17.28s87.040-5.76 128-17.28c97.92 66.56 140.8 52.48 140.8 52.48 28.16-70.4 10.24-122.88 5.12-135.68 32.64-35.84 52.48-81.28 52.48-137.6 0-196.48-119.68-240-233.6-252.8 18.56-16 34.56-46.72 34.56-94.72 0-68.48-0.64-123.52-0.64-140.8 0-13.44 9.6-29.44 35.2-24.32 202.24 67.84 348.8 259.84 348.8 485.76 0 282.88-229.12 512-512 512z" />
<glyph unicode="&#xe92b;" glyph-name="patreon" d="M1024 571.329c0-203.998-165.373-369.372-369.372-369.372s-369.372 165.373-369.372 369.372c0 203.998 165.373 369.372 369.372 369.372s369.372-165.373 369.372-369.372zM0 940.7h180.542v-985.4h-180.542z" />
<glyph unicode="&#xe92c;" glyph-name="rumble" d="M254.62 19.335c10.42-14.588 22.925-25.009 37.513-33.345 72.942-41.681 197.983-2.084 387.632 108.37v0c191.732 110.454 287.598 197.983 289.681 281.346 0 12.504-2.084 22.925-6.252 35.429-120.875-164.639-525.179-368.876-708.574-391.801zM271.293 894.634c164.639-29.177 579.365-258.422 691.902-410.557 4.168 10.42 4.168 22.925 6.252 33.345 0 83.362-93.782 172.976-287.598 283.43v0c-189.648 108.37-312.606 150.051-387.632 108.37-8.336-4.168-14.588-8.336-22.925-14.588zM139.998 880.046c25.009 14.588 56.269 20.84 89.614 18.756 14.588 18.756 29.177 31.261 47.933 41.681 85.446 47.933 220.909 6.252 420.977-110.454v0c204.236-118.791 306.355-214.657 306.355-314.691 0-22.925-6.252-45.849-16.671-68.774 12.504-22.925 16.671-47.933 16.671-70.858 0-97.949-104.202-193.815-306.355-310.523v0c-202.152-116.707-335.531-158.387-423.060-108.37-22.925 12.504-43.765 33.345-60.437 60.437-29.177 0-54.185 8.336-77.11 20.84-85.446 47.933-118.791 183.396-118.791 420.977s35.429 373.044 120.875 420.977zM208.771 865.458c-18.756-2.084-37.513-6.252-52.101-14.588-72.942-41.681-102.118-166.724-102.118-391.801 0-222.993 27.093-350.12 102.118-391.801 12.504-6.252 27.093-12.504 43.765-14.588-79.194 158.387-79.194 662.725 8.336 812.774zM294.217 769.592c-141.715-79.194-141.715-562.691-2.084-641.885 145.882-83.362 539.768 204.236 539.768 329.279 2.084 162.556-400.137 389.716-537.683 312.606zM563.059 421.556c-18.756-10.42-39.597-22.925-58.353-33.345s-39.597-22.925-58.353-33.345c-60.437-35.429-58.353-37.513-58.353 33.345 0 22.925 0 43.765 0 66.689s0 43.765 0 66.689c0 68.774-4.168 68.774 58.353 33.345 18.756-10.42 39.597-22.925 58.353-33.345s39.597-22.925 58.353-33.345c60.437-35.429 60.437-33.345 0-66.689z" />
<glyph unicode="&#xe92d;" glyph-name="clouthub" d="M988.263 632.919c2.867-7.809 5.733-15.669 8.551-23.479 12.407-32.859 21.175-70.959 24.602-110.586l0.113-1.618c1.335-16.114 1.879-32.376 2.472-48.54 0-0.010 0-0.023 0-0.036 0-5.209-0.27-10.357-0.795-15.428l0.053 0.635c-2.197-70.679-20.089-136.694-50.284-195.34l1.201 2.566c-7.563-15.175-16.411-29.657-24.715-44.486-9.885-13.345-18.733-27.088-28.965-39.988-61.069-76.929-142.656-135.124-236.506-166.577l-3.573-1.038c-2.719-0.889-5.339-2.027-8.008-3.064-14.829-3.707-29.164-7.76-43.943-11.023-34.091-7.79-73.24-12.256-113.432-12.256-86.87 0-168.869 20.858-241.262 57.839l3.003-1.393c-17.943 9.045-35.144 19.475-53.729 29.657-65.396-35.441-136.375-60.304-207.603-86.749 0.201 2.404 0.516 4.568 0.951 6.686l-0.062-0.36q8.601 32.179 17.399 64.258c6.723 22.441 12.951 45.080 20.365 67.322 9.441 28.422 19.772 56.498 30.152 85.71l-4.448 6.723c-14.033 20.771-27.339 44.621-38.601 69.591l-1.239 3.070c-1.038 2.372-2.273 4.647-3.411 6.969-5.684 16.262-11.863 32.376-16.954 48.787-8.13 24.884-14.035 53.877-16.561 83.833l-0.097 1.432c-1.384 17.943-1.78 36.034-2.571 54.026-0.247 6.031-0.495 12.012-0.296 17.992 0.31 4.602 0.837 8.789 1.587 12.899l-0.104-0.69c-1.187 8.947 2.372 17.349 3.608 25.951 6.933 49.177 21.013 93.635 41.282 134.477l-1.145-2.55c6.969 14.285 14.829 28.027 22.589 42.015 0.402 0.742 0.833 1.67 1.216 2.623l0.069 0.195c5.289 7.711 10.232 15.719 15.965 23.133 12.16 15.669 24.369 31.289 37.22 46.414 9.045 10.677 18.882 20.76 28.867 30.597 6.179 6.129 13.296 11.269 19.772 16.856 3.756 3.164 7.217 6.525 11.023 9.54 5.733 4.597 11.764 8.848 17.498 13.345 19.525 15.422 41.916 26.197 62.874 39.247 12.061 5.635 23.973 11.567 36.182 16.905 38.422 17.162 83.098 30.568 129.754 38.045l3.112 0.411c25.068 4.148 53.954 6.518 83.395 6.518 11.126 0 22.173-0.339 33.133-1.006l-1.506 0.073c95.876-4.598 183.912-34.526 258.641-83.178l-2.004 1.224c1.532-0.988 3.213-1.68 4.943-2.571l9.392-6.425 3.361-2.323c5.585-4.3 11.22-8.551 16.756-12.901 63.568-48.998 113.897-112.101 146.761-184.791l1.23-3.041c0.445-2.027 1.68-4.053 2.719-6.129zM830.484 746.952c-10.577 9.293-20.711 19.228-31.882 27.829-78.049 60.205-167.022 90.258-265.090 94.361-5.564 0.234-12.092 0.366-18.653 0.366-103.37 0-199.021-33.053-276.959-89.167l1.408 0.964c-15.466-10.887-29.043-22.251-41.608-34.638l0.038 0.038c-0.51-0.203-0.949-0.452-1.35-0.752l0.015 0.010c-24.211-22.444-45.515-47.455-63.656-74.751l-0.949-1.519c-0.544-0.544-1.285-0.988-1.532-1.631-2.334-6.348-5.691-11.804-9.922-16.45l0.035 0.040c-0.323-0.372-0.603-0.795-0.825-1.251l-0.015-0.034c-7.711-15.273-15.669-30.448-22.985-45.92-3.608-7.711-5.932-16.015-8.848-24.023-0.889-2.125-2.027-4.201-2.719-6.376-12.39-35.951-19.544-77.378-19.544-120.476 0-3.974 0.061-7.936 0.181-11.881l-0.014 0.578c0.296-9.885 1.335-19.277 1.977-28.867 0-2.372 0-4.943 0-7.019 5.419-44.815 17.439-85.608 35.139-123.196l-1.033 2.441c9.069-20.401 18.977-37.848 30.356-54.196l-0.698 1.059c2.224-3.509 4.498-6.969 6.574-10.528 3.294-5.032 6.713-11.004 9.797-17.171l0.484-1.068c2.261-4.156 3.591-9.101 3.591-14.357 0-2.643-0.336-5.208-0.968-7.653l0.047 0.212c-2.521-8.107-4.548-16.411-7.365-24.418-4.152-11.764-8.848-23.281-13.296-34.947-5.903-14.079-12.109-32.080-17.314-50.5l-0.875-3.625c4.943 1.928 8.205 3.114 11.468 4.696 25.901 12.407 52 24.715 77.653 37.418 6.836 4.014 15.055 6.386 23.829 6.386 10.792 0 20.747-3.588 28.736-9.636l-0.12 0.086 2.62-1.73c72.91-49.137 162.729-78.432 259.391-78.432 26.853 0 53.178 2.261 78.795 6.603l-2.759-0.386c56.285 9.395 106.701 27.988 152.057 54.332l-2.138-1.146c18.558 10.265 34.516 21.068 49.421 33.12l-0.634-0.496c11.869 8.89 22.308 17.651 32.247 26.942l-0.216-0.2c10.628 10.924 22.639 20.612 31.783 33.068 7.068 9.885 15.422 18.437 22.737 27.977 6.327 8.156 11.961 16.856 17.893 25.357 0.791 1.038 1.631 2.027 2.323 3.114 25.232 39.926 44.147 86.61 53.949 136.561l0.422 2.584c2.422 12.753 3.411 25.802 4.943 38.753 0.495 4.399 1.384 8.799 1.532 13.197 0.441 7.24 0.693 15.702 0.693 24.225 0 23.787-1.96 47.117-5.727 69.837l0.338-2.468c-2.918 18.85-7.050 35.509-12.491 51.564l0.628-2.135c-4.943 13.939-9.293 28.076-14.829 41.718-8.586 21.279-18.54 39.585-30.282 56.562l0.624-0.954c-14.96 24.779-31.678 46.23-50.615 65.494l0.048-0.049c-4.498 5.833-10.281 11.121-15.867 16.559zM820.4 839.781l-3.361 2.323 2.125 1.581zM462.037 370.448c12.299-15.613 31.206-25.546 52.433-25.546 21.071 0 39.857 9.789 52.057 25.067l0.103 0.134c2.694-0.725 4.994-1.569 7.198-2.587l-0.278 0.115c22.737-11.813 45.624-23.281 67.965-35.836 19.031-10.628 28.027-28.521 30.696-49.429 1.829-13.939 2.076-28.125 2.965-41.422l-1.433-1.384-0.593-0.445c-0.119-0.034-0.254-0.054-0.396-0.054s-0.277 0.020-0.406 0.056l0.010-0.003h-313.382c-1.285 0-2.571 0-3.657 0s-1.137 1.038-1.137 1.433c-0.099 2.473-0.156 5.376-0.156 8.292 0 15.009 1.496 29.669 4.348 43.837l-0.237-1.414c3.695 17.839 14.715 32.57 29.704 41.165l0.3 0.159c21.304 11.764 42.954 22.787 64.258 34.008 3.411 1.384 6.624 2.472 9.639 3.856zM630.097 413.502c-3.909 8.597-6.897 18.581-8.473 29.026l-0.079 0.631c-0.523 3.524-0.822 7.589-0.822 11.726 0 20.946 7.663 40.102 20.34 54.817l-0.092-0.109c27.384 31.733 72.414 30.103 97.326-3.707 18.338-24.715 21.452-52.544 12.012-81.806-0.791-2.472-1.631-4.943-2.472-7.365-4.334-7.182-8.526-13.263-13.037-19.083l0.334 0.448c-11.044-13.793-27.879-22.55-46.762-22.55-0.938 0-1.871 0.022-2.799 0.065l0.132-0.005c-16.76 0.574-31.661 8.074-42.013 19.712l-0.052 0.060c-4.499 5.341-8.952 11.255-13.080 17.405l-0.464 0.735zM284.388 411.92c-0.889 2.125-1.879 4.3-2.719 6.475-12.259 31.882-9.885 62.084 11.22 89.665 10.273 13.719 25.989 22.878 43.885 24.257l0.207 0.012c1.563 0.152 3.378 0.239 5.215 0.239 14.18 0 27.15-5.178 37.123-13.747l-0.076 0.064c17.134-14.104 28.257-34.971 29.257-58.459l0.006-0.164c0.098-1.649 0.154-3.578 0.154-5.519 0-14.31-3.040-27.91-8.511-40.189l0.251 0.628c-3.015-4.548-5.733-9.293-9.045-13.593-26.544-34.601-73.254-34.601-99.798 0-2.521 3.46-4.795 6.92-7.167 10.331zM458.874 414.935c-5.245 11.533-8.3 25.012-8.3 39.204 0 3.427 0.178 6.813 0.526 10.147l-0.035-0.417c1.771 21.607 12.020 40.523 27.374 53.639l0.108 0.090c10.41 9.242 24.195 14.887 39.299 14.887 17.192 0 32.676-7.314 43.51-19.001l0.035-0.038c13.551-13.867 22.227-32.549 23.224-53.245l0.008-0.188c0.090-1.584 0.141-3.438 0.141-5.304 0-14.365-3.036-28.022-8.5-40.363l0.252 0.637c-3.788-6.166-7.439-11.391-11.359-16.394l0.287 0.38c-11.175-14.253-28.395-23.327-47.733-23.327-0.823 0-1.641 0.016-2.456 0.049l0.117-0.004c-17.357 0.569-32.752 8.51-43.232 20.777l-0.068 0.082c-4.352 5.358-8.698 11.354-12.712 17.584l-0.485 0.804z" />
<glyph unicode="&#xe92e;" glyph-name="gab" d="M232.596 598.219h96.916v-266.517c0-127.808-69.658-188.985-174.448-188.985-47.852 0-90.252 16.355-116.298 38.766l38.766 72.686c22.411-15.143 43.612-24.229 72.081-24.229 51.487 0 82.984 36.949 82.984 90.252v16.355c-21.806-26.046-52.698-38.766-86.618-38.766-82.984 0-145.979 69.053-145.979 155.064s62.995 155.064 145.979 155.064c33.921 0 64.812-12.72 86.618-38.766v29.075zM164.756 385.005c36.949 0 67.841 30.892 67.841 67.841s-30.892 67.841-67.841 67.841c-36.949 0-67.841-30.892-67.841-67.841s30.892-67.841 67.841-67.841zM645.258 307.472h-96.916v24.229c-18.777-21.201-44.823-33.921-78.744-33.921-67.841 0-105.396 47.247-105.396 101.156 0 79.955 98.127 109.636 182.929 84.196-1.817 26.046-18.171 44.823-52.092 44.823-23.623 0-50.88-9.086-67.841-18.777l-29.075 69.658c22.411 14.537 63.601 29.075 111.453 29.075 70.87 0 135.682-39.977 135.682-149.008v-151.43zM548.343 422.559c-45.429 14.537-87.224 6.663-87.224-25.441 0-18.777 15.749-31.497 34.526-31.497 22.411 0 47.852 18.171 52.698 56.938zM791.402 753.284v-184.14c21.806 26.046 52.698 38.766 86.618 38.766 82.984 0 145.979-69.053 145.979-155.064s-62.995-155.064-145.979-155.064c-33.921 0-64.812 12.72-86.618 38.766v-29.075h-96.916v445.811h96.916zM859.243 385.005c36.949 0 67.841 30.892 67.841 67.841s-30.892 67.841-67.841 67.841c-36.949 0-67.841-30.892-67.841-67.841s30.892-67.841 67.841-67.841z" />
<glyph unicode="&#xe92f;" glyph-name="parler" d="M597.399 106.909h-255.999v86.937c0 46.080 37.273 83.353 83.353 83.353h172.749c141.312 0 256.203 114.585 256.203 255.385s-114.994 255.385-256.305 255.385h-2.662l-54.271 1.638h-540.464c0 94.105 76.288 170.394 170.289 170.394h372.837l55.705-1.741c234.597-0.717 425.163-191.385 425.163-425.676 0-234.7-191.385-425.676-426.596-425.676zM170.496-63.997c-94.105 0-170.289 76.288-170.289 170.289v346.929c0 91.341 74.035 165.477 165.477 165.477h432.024c47.053 0 85.197-38.143 85.197-85.197s-38.143-85.197-85.197-85.197v0h-343.038c-46.387 0-84.069-37.581-84.069-84.069v-428.235z" />
<glyph unicode="&#xe930;" glyph-name="gettr" d="M629.74 607.414c-2.822-15.904-10.261-28.986-22.061-40.529 4.874-1.026 10.518 1.283 14.108 4.618-1.283-6.413-3.335-12.569-6.67-18.469-5.644-10.261-14.622-18.725-24.369-24.625-14.108-8.208-30.012-10.517-46.942-13.338-11.286-1.797-23.086-3.592-30.269-11.287-3.592-3.848-6.156-9.234-7.696-14.621-13.852 19.751-23.856 42.838-21.291 62.333 3.592 27.447 31.808 48.224 63.36 60.794 32.577 13.339 69.002 17.956 92.601 35.912-2.821-8.978-6.413-17.956-11.286-25.908-4.874-8.209-11.030-15.647-17.7-22.317 7.439 0.514 12.826 3.078 18.213 7.439zM294.733 415.541h94.91v43.095h-152.112v-210.381h152.112v45.526h-94.91v39.933h83.367v43.095h-83.367zM621.788 458.636v-43.095h53.868v-167.287h57.46v167.287h53.611v43.095zM598.701 458.636h-185.715l24.881-43.095h39.247v-167.287h57.203v167.287h39.247zM975.007 327.046c27.96 15.134 42.068 47.198 34.629 78.237-7.439 31.037-34.886 52.841-66.694 53.611-39.247 0-78.494 0-117.74 0 0-70.284 0-140.57 0-210.599 19.238 0 38.221 0 57.203 0 0 23.343 0 46.942 0 70.285 10.261 0 20.264 0 30.525 0 14.622-23.343 29.243-46.942 43.864-70.285 22.316 0 44.89 0 67.206 0-16.161 25.908-32.577 52.33-48.993 78.75zM927.808 361.418c-15.134 0-30.269 0-45.145 0 0 17.956 0 36.169 0 54.125 15.646 0 31.037 0 46.685 0 14.364-1.027 25.394-13.339 25.138-27.704-0.514-14.621-12.313-26.164-26.678-26.421zM110.557 418.621c-21.034-3.848-38.734-17.956-46.942-37.964-8.209-19.751-5.9-42.325 6.156-60.024 14.365-21.034 41.042-30.012 65.155-21.804 0 20.777 0 41.555 0 62.333 19.238 0 38.22 0 57.202 0 0-32.578 0-65.411 0-97.989-31.807-13.852-66.694-18.469-100.809-13.338-25.395 3.848-48.481 16.93-65.411 36.425s-25.908 44.377-25.908 70.029 9.235 50.533 25.908 70.029c16.673 19.496 40.016 32.321 65.411 36.425 34.116 5.13 69.002 0.77 100.554-13.081-7.696-13.339-15.648-26.934-23.343-40.273-17.699 9.492-37.964 12.826-57.972 9.235z" />
<glyph unicode="&#xe931;" glyph-name="link" horiz-adv-x="1025" d="M586.921 299.463q-7.939 0-15.957 0.556c-66.554 4.915-124.415 38.399-161.918 88.111l-0.408 0.566c-4.632 6.127-7.417 13.871-7.417 22.263 0 20.496 16.613 37.103 37.103 37.103 12.096 0 22.842-5.785 29.616-14.744l0.072-0.091c27.361-36.292 70.389-59.512 118.843-59.512 40.99 0 78.101 16.623 104.959 43.485l111.306 111.306c27.951 27.020 45.303 64.86 45.303 106.75 0 81.969-66.441 148.41-148.41 148.41-41.89 0-79.73-17.351-106.712-45.263l-0.037-0.039-63.85-63.556c-6.706-6.678-15.965-10.806-26.175-10.806-20.499 0-37.106 16.618-37.106 37.106 0 10.278 4.181 19.583 10.928 26.305l63.785 63.484c40.153 39.496 95.266 63.892 156.085 63.892 122.947 0 222.615-99.668 222.615-222.615 0-60.853-24.421-116.003-63.994-156.189l-111.279-111.279c-40.264-40.279-95.896-65.205-157.346-65.222h-0.006zM327.017 39.932c-0.095 0-0.212 0-0.329 0-122.947 0-222.615 99.668-222.615 222.615 0 61.549 24.981 117.268 65.365 157.569l111.308 111.308c40.288 40.303 95.95 65.222 157.439 65.222 72.657 0 137.188-34.811 177.82-88.666l0.408-0.565c4.632-6.127 7.417-13.871 7.417-22.263 0-20.496-16.613-37.103-37.103-37.103-12.096 0-22.842 5.785-29.616 14.744l-0.072 0.091c-27.361 36.292-70.389 59.512-118.843 59.512-40.99 0-78.101-16.623-104.959-43.485l-111.306-111.306c-27.951-27.020-45.303-64.86-45.303-106.75 0-81.969 66.441-148.41 148.41-148.41 41.89 0 79.73 17.351 106.712 45.263l0.037 0.039 63.408 63.442c6.715 6.721 15.999 10.874 26.254 10.874 20.499 0 37.105-16.618 37.105-37.105 0-10.245-4.151-19.519-10.863-26.232l-63.408-63.484c-40.077-40.362-95.595-65.336-156.941-65.336-0.12 0-0.229 0-0.347 0h0.022z" />
<glyph unicode="&#xe932;" glyph-name="star" horiz-adv-x="1068" d="M811.285-64c-13.408 0.008-26.095 3.083-37.402 8.561l0.512-0.224c-2.249 0.967-4.124 1.941-5.922 3.031l0.211-0.119-234.643 133.796-234.643-133.853c-1.603-0.935-3.59-1.946-5.632-2.858l-0.422-0.168c-10.673-5.031-23.183-7.968-36.379-7.968-18.933 0-36.453 6.046-50.737 16.312l0.26-0.177c-21.419 15.76-35.163 40.871-35.163 69.192 0 6.010 0.619 11.875 1.796 17.535l-0.097-0.556 54.649 265.080-199.695 181.707c-1.597 1.449-3.054 2.978-4.394 4.608l-0.060 0.075c-14.57 15.268-23.536 35.995-23.536 58.816 0 41.822 30.113 76.611 69.84 83.867l0.522 0.079c1.555 0.398 3.494 0.759 5.469 1.003l0.242 0.024 268.392 29.752 111.126 246.121c1.056 2.418 2.202 4.481 3.515 6.421l-0.089-0.139c14.948 26.345 42.807 43.829 74.75 43.829s59.802-17.485 74.528-43.405l0.222-0.424c1.199-2.056 2.341-4.169 3.426-6.396l111.24-246.235 268.392-29.752c2.184-0.233 4.126-0.575 6.023-1.035l-0.312 0.064c40.17-7.597 70.142-42.418 70.142-84.24 0-22.817-8.922-43.551-23.467-58.903l0.037 0.039c-1.371-1.485-2.912-3.084-4.454-4.454l-199.866-181.821 54.649-264.509c1.072-5.107 1.685-10.976 1.685-16.988 0-28.535-13.824-53.842-35.141-69.587l-0.236-0.167c-13.691-9.922-30.813-15.888-49.328-15.932h-0.011zM345.94 310.949c-2.227-10.393-26.611-128.257-48.253-233.101l207.804 118.492c8.122 4.708 17.87 7.487 28.267 7.487s20.145-2.779 28.542-7.634l-0.275 0.147 208.032-118.492-48.482 234.129c-0.742 3.452-1.166 7.417-1.166 11.482 0 16.754 7.215 31.823 18.708 42.269l0.047 0.042 177.024 161.149-238.012 26.325c-20.441 2.374-37.407 15.238-45.538 32.993l-0.146 0.356-98.448 218.425-98.62-218.197c-8.34-18.061-25.273-30.895-45.409-33.322l-0.275-0.027-238.298-26.325 177.024-161.149c11.617-10.495 18.886-25.613 18.886-42.429 0-4.474-0.514-8.828-1.487-13.005l0.076 0.386z" />
<glyph unicode="&#xe933;" glyph-name="user-rev-star-half" horiz-adv-x="1068" d="M811.466-64c-13.411 0.008-26.101 3.084-37.41 8.563l0.512-0.224c-2.249 0.967-4.125 1.941-5.923 3.032l0.211-0.119-234.695 133.826-234.695-133.883c-1.603-0.935-3.591-1.947-5.633-2.859l-0.421-0.168c-10.675-5.032-23.188-7.97-36.387-7.97-18.937 0-36.461 6.047-50.748 16.315l0.26-0.177c-21.424 15.764-35.171 40.88-35.171 69.207 0 6.011 0.619 11.877 1.797 17.539l-0.097-0.556 54.661 265.139-91.388 83.22-108.523 98.527c-1.598 1.449-3.055 2.979-4.395 4.609l-0.060 0.075c-14.573 15.272-23.541 36.003-23.541 58.829 0 41.831 30.12 76.628 69.855 83.885l0.522 0.079c1.555 0.398 3.494 0.759 5.47 1.004l0.242 0.024 268.452 29.758 111.15 246.176c1.057 2.418 2.202 4.482 3.516 6.422l-0.089-0.139c14.952 26.35 42.817 43.839 74.767 43.839s59.815-17.489 74.545-43.415l0.222-0.424c1.199-2.056 2.342-4.17 3.427-6.397l111.436-246.29 268.452-29.758c2.184-0.233 4.127-0.575 6.024-1.035l-0.312 0.064c40.179-7.599 70.158-42.428 70.158-84.259 0-22.823-8.924-43.561-23.472-58.916l0.037 0.039c-1.371-1.485-2.913-3.084-4.455-4.455l-199.911-181.862 54.661-264.568c1.072-5.108 1.686-10.978 1.686-16.992 0-28.542-13.827-53.854-35.149-69.603l-0.236-0.167c-13.694-9.925-30.82-15.891-49.339-15.936h-0.011zM534.162 203.88l27.816-7.482 208.079-118.519-48.493 234.181c-0.742 3.452-1.166 7.419-1.166 11.484 0 16.758 7.217 31.83 18.712 42.278l0.047 0.042 177.064 161.185-238.065 26.331c-20.446 2.375-37.415 15.242-45.548 33l-0.146 0.356-98.299 218.474z" />
<glyph unicode="&#xe934;" glyph-name="user-rev-star-full" horiz-adv-x="1068" d="M811.285-64c-13.408 0.008-26.095 3.083-37.402 8.561l0.512-0.224c-2.249 0.967-4.124 1.941-5.922 3.031l0.211-0.119-234.643 133.796-234.643-133.853c-1.603-0.935-3.59-1.946-5.632-2.858l-0.422-0.168c-10.673-5.031-23.183-7.968-36.379-7.968-18.933 0-36.453 6.046-50.737 16.312l0.26-0.177c-21.419 15.76-35.163 40.871-35.163 69.192 0 6.010 0.619 11.875 1.796 17.535l-0.097-0.556 54.649 265.080-199.695 181.707c-1.597 1.449-3.054 2.978-4.394 4.608l-0.060 0.075c-14.57 15.268-23.536 35.995-23.536 58.816 0 41.822 30.113 76.611 69.84 83.867l0.522 0.079c1.555 0.398 3.494 0.759 5.469 1.003l0.242 0.024 268.392 29.752 111.126 246.121c1.056 2.418 2.202 4.481 3.515 6.421l-0.089-0.139c14.948 26.345 42.807 43.829 74.75 43.829s59.802-17.485 74.528-43.405l0.222-0.424c1.199-2.056 2.341-4.169 3.426-6.396l111.24-246.235 268.392-29.752c2.184-0.233 4.126-0.575 6.023-1.035l-0.312 0.064c40.17-7.597 70.142-42.418 70.142-84.24 0-22.817-8.922-43.551-23.467-58.903l0.037 0.039c-1.371-1.485-2.912-3.084-4.454-4.454l-199.866-181.821 54.649-264.509c1.072-5.107 1.685-10.976 1.685-16.988 0-28.535-13.824-53.842-35.141-69.587l-0.236-0.167c-13.691-9.922-30.813-15.888-49.328-15.932h-0.011z" />
<glyph unicode="&#xe935;" glyph-name="kakao" d="M512 854.386c261.848 0 474.115-165.445 474.115-369.585 0-204.094-212.267-369.539-474.115-369.539-0.096 0-0.209 0-0.322 0-27.38 0-54.337 1.805-80.759 5.301l3.1-0.335-199.040-130.178c-22.621-11.967-30.614-10.657-21.312 18.647l40.279 166.075c-130.044 65.923-216.061 180.164-216.061 310.025 0 204.094 212.267 369.585 474.115 369.585zM778.723 490.444l66.377 64.3c3.689 3.825 5.959 9.039 5.959 14.781 0 11.77-9.541 21.312-21.312 21.312-5.497 0-10.507-2.080-14.286-5.498l0.017 0.016-87.055-84.257v69.626c0 11.77-9.541 21.312-21.312 21.312s-21.312-9.541-21.312-21.312v0-115.459c-0.381-1.506-0.599-3.232-0.599-5.012s0.218-3.506 0.631-5.159l-0.032 0.147v-64.976c0-11.77 9.541-21.312 21.312-21.312s21.312 9.541 21.312 21.312v0 61.545l19.281 18.647 64.48-91.796c3.909-5.513 10.264-9.070 17.451-9.070 11.778 0 21.329 9.548 21.329 21.329 0 4.591-1.452 8.844-3.92 12.325l0.045-0.066-68.362 97.308zM645.159 403.568h-65.923v166.483c-0.539 11.34-9.864 20.331-21.29 20.331s-20.751-8.991-21.289-20.282l-0.002-0.049v-187.795c0-11.741 9.482-21.312 21.266-21.312h87.238c11.77 0 21.312 9.541 21.312 21.312s-9.541 21.312-21.312 21.312v0zM380.692 452.878l31.427 77.077 28.808-77.077h-60.235zM494.616 430.842l0.091 0.722c-0.011 5.597-2.191 10.681-5.743 14.462l0.010-0.010-47.23 126.43c-4.078 12.143-15.108 20.841-28.249 21.401l-0.063 0.002c-0.042 0-0.091 0-0.14 0-13.313 0-24.693-8.279-29.272-19.971l-0.073-0.214-75-184.001c-1-2.384-1.582-5.155-1.582-8.060 0-11.771 9.542-21.314 21.314-21.314 8.866 0 16.466 5.412 19.679 13.115l0.052 0.142 14.902 36.71h93.468l13.501-36.122c2.944-8.478 10.862-14.452 20.177-14.452 11.77 0 21.312 9.541 21.312 21.312 0 2.898-0.58 5.663-1.628 8.181l0.052-0.142-15.578 41.813zM344.616 569.826c0 0 0 0 0 0 0 11.755-9.517 21.287-21.264 21.312h-146.525c-11.77 0-21.312-9.541-21.312-21.312s9.541-21.312 21.312-21.312v0h52.379v-168.694c0-11.77 9.541-21.312 21.312-21.312s21.312 9.541 21.312 21.312v0 168.694h51.475c11.784 0 21.312 9.573 21.312 21.312z" />
<glyph unicode="&#xe936;" glyph-name="strava" d="M658.77 190.426l-90.524 178.36h-132.816l223.34-440.786 223.166 440.786h-132.86zM445.396 611.41l122.894-242.58h180.786l-303.68 599.17-303.334-599.214h180.656z" />
</font>
</defs>
</svg>
